<svg id="Account_Created" data-name="Account Created" xmlns="http://www.w3.org/2000/svg" viewBox="0 0 73.19 41.04"><defs><style>.cls-1{fill:#fff;}.cls-2{fill:#b5cddc;}.cls-3{fill:#148cb3;}.cls-12,.cls-4{fill:none;}.cls-4{stroke:#b5cddc;}.cls-10,.cls-11,.cls-12,.cls-4{stroke-miterlimit:10;}.cls-5{fill:#b3cddd;}.cls-6{fill:#63bc46;}.cls-7{fill:#f89822;}.cls-8{fill:#ffd149;}.cls-9{fill:#464fa1;}.cls-10,.cls-11{fill:#e46253;stroke:#fff;}.cls-10{stroke-width:0.25px;}.cls-11{stroke-width:0.1px;}.cls-12{stroke:#464fa1;stroke-linecap:round;}</style></defs><circle class="cls-1" cx="20.52" cy="20.52" r="20.02"/><path class="cls-2" d="M13.55,34.61c0-7.68,15.88-8.71,16.2-.23.21,5.33-1.05,6.93-7.37,6.89C15.88,41.24,13.55,41.62,13.55,34.61Z" transform="translate(-0.97 -0.73)"/><path class="cls-3" d="M21.65,29.1s-1.24,12.75.64,12.52c2.75-.35,7,.56,6.88-6.8C28.59,28.5,22.47,28.79,21.65,29.1Z" transform="translate(-0.97 -0.73)"/><circle class="cls-4" cx="20.52" cy="20.52" r="20.02"/><circle class="cls-2" cx="20.52" cy="17.29" r="7.83"/><path class="cls-3" d="M26.39,21.47l-9.79-.22S21.44,29.15,26.39,21.47Z" transform="translate(-0.97 -0.73)"/><circle class="cls-5" cx="35.57" cy="33.7" r="5.98"/><path id="checkmark" class="cls-6" d="M36.54,29.33a5.1,5.1,0,1,0,5.1,5.1A5.09,5.09,0,0,0,36.54,29.33ZM39.39,33,35.67,36.7a.25.25,0,0,1-.34,0l-.07-.08h0l-2-2.06a.24.24,0,0,1,0-.33l.51-.51a.25.25,0,0,1,.34,0l1.44,1.46,3-3a.23.23,0,0,1,.34,0l.51.5a.25.25,0,0,1,0,.34Z" transform="translate(-0.97 -0.73)"/><rect class="cls-1" x="34.23" y="33.78" width="5.78" height="1.24" transform="translate(-14.42 35.59) rotate(-45)"/><rect class="cls-1" x="33.06" y="34.32" width="2.78" height="1.24" transform="translate(33.82 -14.86) rotate(45)"/><rect class="cls-7" x="48.59" y="1.1" width="23.78" height="17" rx="0.72"/><rect class="cls-3" x="48.22" y="1.1" width="23.78" height="17" rx="0.72"/><polygon class="cls-2" points="70.03 23.62 49.24 23.62 52.41 21.79 73.19 21.79 70.03 23.62"/><rect class="cls-1" x="49.24" y="1.96" width="21.74" height="13.97"/><polygon class="cls-7" points="57.48 18.7 63.45 18.7 63.61 21.26 64.85 22.48 64.85 22.87 56.1 22.81 56.11 22.41 57.37 21.26 57.48 18.7"/><polygon class="cls-3" points="57.15 18.7 63.12 18.7 63.28 21.26 64.52 22.48 64.52 22.87 55.77 22.81 55.78 22.41 57.04 21.26 57.15 18.7"/><rect class="cls-8" x="66.07" y="15.2" width="4.82" height="7.67" rx="0.41"/><rect class="cls-9" x="65.77" y="15.2" width="4.82" height="7.67" rx="0.41"/><rect class="cls-1" x="66.11" y="15.54" width="4.13" height="6.25"/><circle class="cls-8" cx="68.23" cy="22.38" r="0.32"/><circle class="cls-1" cx="68.16" cy="22.38" r="0.32"/><path id="mail" class="cls-7" d="M61.45,9.88l4.44-2.09V6.7H57V7.79Zm0,.51L57,8.29v4.35h8.88V8.3Z" transform="translate(-0.97 -0.73)"/><path id="mail-2" data-name="mail" class="cls-7" d="M69,19.83l1.38-.64v-.34H67.66v.33ZM69,20l-1.38-.65v1.35h2.76V19.34Z" transform="translate(-0.97 -0.73)"/><circle class="cls-10" cx="65.09" cy="5.82" r="1.74"/><path class="cls-1" d="M66,5.86h0L65.68,6l-.05-.2.42-.22h.23V7.55H66Z" transform="translate(-0.97 -0.73)"/><circle class="cls-11" cx="69.36" cy="17.76" r="0.68"/><path class="cls-1" d="M70.32,18.22h0l-.13.07,0-.08.16-.08h.09v.75h-.1Z" transform="translate(-0.97 -0.73)"/><path class="cls-12" d="M40.6,20.29c-4.47,4.33-8.66-.35-6.18-1.84C38,16.28,38.81,24.73,32,25" transform="translate(-0.97 -0.73)"/><path class="cls-9" d="M54.87,6.44a.28.28,0,0,1,.28.38C54.29,9,48.41,20.07,48,20.14s-2.77-2.45-3-2.29S42.11,20.14,41.79,20s-.66-5.36-1.14-5.79-3.77-2.71-3.69-3.3S52.27,6.64,54.87,6.44Z" transform="translate(-0.97 -0.73)"/><polygon class="cls-1" points="50.71 8.21 40.45 13.46 41.09 17.56 42.39 15.3 50.71 8.21"/></svg>