<svg xmlns="http://www.w3.org/2000/svg" width="25.938" height="19.453" viewBox="0 0 25.938 19.453">
  <path id="barcode2" d="M19.3,16.481H17.872v.475H19.3Zm-5.316,1.425v.475h1.425v.475h.475v-1.9h-.475v.95H13.981Zm0,1.9h.95v-.475h-.95Zm.95-.475h.475v-.475h-.475Zm-.95-2.375h-.475v.95h.475ZM11.348,7.242H9.727v8.106h1.621Zm1.621,0h-.811v8.106h.811Zm4.9,12.564H19.3v-.475H17.872Zm-2.467-3.325H13.981v.475h1.425Zm4.366,2.85V16.956H19.3v2.375Zm.492-12.089h-.811v8.106h.811ZM10.09,18.856H9.615v.475h.475ZM16.211,7.242H14.59v8.106h1.621Zm1.621,0h-.811v8.106h.811ZM17.4,19.331h.475V16.956H17.4Zm-11.673.475H8.1v-.475H6.2v-.475H5.724Zm0-2.375H6.2v-.475H5.724Zm.95.95h.95v-.475h-.95Zm3.891-.475v.475h.95v-.475ZM6.2,16.481v.475H7.624v-.475Zm.285-9.239H5.674v8.106h.811ZM24.317,4H1.621A1.622,1.622,0,0,0,0,5.621V21.832a1.622,1.622,0,0,0,1.621,1.621h22.7a1.622,1.622,0,0,0,1.621-1.621V5.621A1.622,1.622,0,0,0,24.317,4Zm0,17.832H1.621V5.621h22.7ZM4.863,7.242H3.242V20.211H4.863ZM6.2,18.856h.475v-.475H6.2Zm5.791-1.9h-.475v.95h.475Zm-1.9-.475v.475h1.425v-.475ZM8.1,17.906v-.95H7.624v.95Zm1.516-.475h.475v-.475H9.615Zm-.7-10.189H8.106v8.106h.811ZM11.99,18.381h-.475v.95h.475Zm-.475,1.425v-.475H10.09v.475ZM22.7,7.242H21.075V20.211H22.7Z" transform="translate(0 -4)" fill="#fff"/>
</svg>
