<svg xmlns="http://www.w3.org/2000/svg" viewBox="0 0 670 670" width="670" height="670">
	<style>
		tspan { white-space:pre }
		.shp0 { fill: #ffffff } 
	</style>
	<g id="Layer">
		<g id="Layer">
			<g id="Layer">
				<path id="Layer" class="shp0" d="M29 114L69.8 114L69.8 556L29 556L29 114Z" />
				<path id="Layer" class="shp0" d="M90.2 114L117.4 114L117.4 440.4L90.2 440.4L90.2 114Z" />
				<path id="Layer" class="shp0" d="M165 114L192.2 114L192.2 440.4L165 440.4L165 114Z" />
				<path id="Layer" class="shp0" d="M212.6 114L253.4 114L253.4 440.4L212.6 440.4L212.6 114Z" />
				<path id="Layer" class="shp0" d="M131 114L151.4 114L151.4 440.4L131 440.4L131 114Z" />
				<path id="Layer" class="shp0" d="M267 114L287.4 114L287.4 440.4L267 440.4L267 114Z" />
				<path id="Layer copy 2" class="shp0" d="M0 106L20.4 106L20.4 564.4L0 564.4L0 106Z" />
				<path id="Layer copy 8" class="shp0" d="M0 106L20.4 106L20.4 569.4L0 569.4L0 106Z" />
				<path id="Layer copy 3" class="shp0" d="M650 106L670.4 106L670.4 564.4L650 564.4L650 106Z" />
				<path id="Layer copy 9" class="shp0" d="M650 107L670.4 107L670.4 565.4L650 565.4L650 107Z" />
				<path id="Layer copy 10" class="shp0" d="M650 108L670.4 108L670.4 566.4L650 566.4L650 108Z" />
				<path id="Layer copy 11" class="shp0" d="M650 109L670.4 109L670.4 567.4L650 567.4L650 109Z" />
				<path id="Layer copy 12" class="shp0" d="M650 110L670.4 110L670.4 568.4L650 568.4L650 110Z" />
				<path id="Layer copy 13" class="shp0" d="M650 111L670.4 111L670.4 569.4L650 569.4L650 111Z" />
				<path id="Layer copy 14" class="shp0" d="M650 112L670.4 112L670.4 570.4L650 570.4L650 112Z" />
				<path id="Layer copy 15" class="shp0" d="M650 113L670.4 113L670.4 571.4L650 571.4L650 113Z" />
				<path id="Layer copy 4" class="shp0" d="M457.4 87L457.4 107.4L-1 107.4L-1 87L457.4 87Z" />
				<path id="Layer copy 5" class="shp0" d="M670.4 87L670.4 107.4L212 107.4L212 87L670.4 87Z" />
				<path id="Layer copy 6" class="shp0" d="M458.4 568L458.4 588.4L0 588.4L0 568L458.4 568Z" />
				<path id="Layer copy 7" class="shp0" d="M670.4 568L670.4 588.4L212 588.4L212 568L670.4 568Z" />
				<path id="Layer" class="shp0" d="M405.26 114L362.2 114L362.2 440.4L405.26 440.4L417.74 440.4L443.8 440.4L443.8 114L417.74 114L405.26 114Z" />
				<path id="Layer" class="shp0" d="M301 114L335 114L335 440.4L301 440.4L301 114Z" />
				<path id="Layer" class="shp0" d="M552.6 114L593.4 114L593.4 440.4L552.6 440.4L552.6 114Z" />
				<path id="Layer" class="shp0" d="M507.26 114L471 114L471 440.4L507.26 440.4L514.06 440.4L532.2 440.4L532.2 114L514.06 114L507.26 114Z" />
				<path id="Layer" class="shp0" d="M607 114L641 114L641 556L607 556L607 114Z" />
			</g>
			<g id="Layer">
				<path id="Layer" fill-rule="evenodd" class="shp0" d="M141.15 519.49C141.15 542.77 132.52 555.61 117.35 555.61C103.98 555.61 94.92 543.08 94.71 520.44C94.71 497.48 104.61 484.85 118.51 484.85C132.94 484.84 141.15 497.69 141.15 519.49ZM103.98 520.54C103.98 538.34 109.45 548.45 117.88 548.45C127.36 548.45 131.88 537.39 131.88 519.9C131.88 503.06 127.57 492 117.98 492C109.88 492 103.98 501.9 103.98 520.54Z" />
				<path id="Layer" class="shp0" d="M170.88 494.64L170.66 494.64L158.76 501.06L156.97 494L171.92 485.99L179.82 485.99L179.82 554.45L170.87 554.45L170.87 494.64L170.88 494.64Z" />
				<path id="Layer" class="shp0" d="M205.87 554.45L205.87 548.77L213.13 541.71C230.61 525.07 238.51 516.22 238.62 505.9C238.62 498.95 235.24 492.52 225.03 492.52C218.81 492.52 213.65 495.68 210.49 498.32L207.54 491.79C212.28 487.78 219.03 484.84 226.93 484.84C241.67 484.84 247.89 494.94 247.89 504.74C247.89 517.38 238.72 527.6 224.29 541.5L218.81 546.56L218.81 546.76L249.56 546.76L249.56 554.45L205.87 554.45L205.87 554.45Z" />
				<path id="Layer" class="shp0" d="M263.18 543.81C265.81 545.5 271.92 548.13 278.34 548.13C290.25 548.13 293.93 540.56 293.83 534.87C293.72 525.28 285.08 521.17 276.13 521.17L270.96 521.17L270.96 514.23L276.13 514.23C282.87 514.23 291.4 510.74 291.4 502.64C291.4 497.17 287.92 492.32 279.39 492.32C273.91 492.32 268.65 494.75 265.69 496.85L263.28 490.11C266.86 487.48 273.81 484.85 281.19 484.85C294.66 484.85 300.78 492.86 300.78 501.17C300.78 508.23 296.56 514.23 288.13 517.29L288.13 517.49C296.56 519.18 303.41 525.5 303.41 535.08C303.41 546.03 294.87 555.62 278.45 555.62C270.76 555.62 264.02 553.21 260.65 550.99L263.18 543.81Z" />
				<path id="Layer" fill-rule="evenodd" class="shp0" d="M344.72 535.81L312.91 535.81L312.91 529.7L343.45 485.99L353.46 485.99L353.46 528.54L363.04 528.54L363.04 535.8L353.46 535.8L353.46 554.44L344.72 554.44L344.72 535.81ZM344.72 505.69C344.72 502.12 344.83 498.53 345.04 494.95L344.72 494.95C342.61 498.95 340.92 501.9 339.03 505.06L322.28 528.34L322.28 528.55L344.72 528.55L344.72 505.69Z" />
				<path id="Layer" class="shp0" d="M412.04 493.79L385.92 493.79L383.29 511.39C384.86 511.17 386.34 510.96 388.87 510.96C394.13 510.96 399.4 512.12 403.61 514.64C408.98 517.7 413.4 523.59 413.4 532.24C413.4 545.61 402.77 555.61 387.92 555.61C380.44 555.61 374.13 553.51 370.86 551.4L373.18 544.35C376.02 546.03 381.6 548.14 387.81 548.14C396.56 548.14 404.04 542.46 404.04 533.29C403.93 524.44 398.03 518.13 384.34 518.13C380.45 518.13 377.39 518.56 374.86 518.87L379.28 486L412.03 486L412.03 493.8L412.04 493.8L412.04 493.79Z" />
				<path id="Layer" fill-rule="evenodd" class="shp0" d="M465.36 492.53C463.47 492.42 461.04 492.53 458.41 492.95C443.87 495.37 436.18 506.01 434.61 517.28L434.92 517.28C438.18 512.96 443.87 509.38 451.46 509.38C463.57 509.38 472.1 518.12 472.1 531.5C472.1 544.03 463.57 555.61 449.35 555.61C434.71 555.61 425.12 544.24 425.12 526.44C425.12 512.96 429.97 502.33 436.71 495.59C442.39 490.01 449.97 486.53 458.62 485.48C461.35 485.05 463.67 484.95 465.35 484.95L465.35 492.53L465.36 492.53L465.36 492.53ZM462.72 532.02C462.72 522.23 457.14 516.33 448.61 516.33C443.03 516.33 437.87 519.8 435.35 524.75C434.71 525.8 434.29 527.17 434.29 528.86C434.5 540.13 439.67 548.45 449.36 548.45C457.35 548.45 462.72 541.82 462.72 532.02Z" />
				<path id="Layer" class="shp0" d="M525.83 485.99L525.83 492.1L496.02 554.45L486.44 554.45L516.14 493.9L516.14 493.68L482.65 493.68L482.65 485.99L525.83 485.99L525.83 485.99Z" />
				<path id="Layer" fill-rule="evenodd" class="shp0" d="M535.65 537.08C535.65 528.45 540.82 522.33 549.24 518.76L549.13 518.44C541.55 514.86 538.28 508.96 538.28 503.06C538.28 492.21 547.44 484.84 559.45 484.84C572.71 484.84 579.35 493.16 579.35 501.69C579.35 507.48 576.51 513.7 568.08 517.7L568.08 518.02C576.62 521.38 581.88 527.38 581.88 535.71C581.88 547.61 571.66 555.61 558.6 555.61C544.28 555.61 535.65 547.08 535.65 537.08ZM572.52 536.65C572.52 528.33 566.72 524.33 557.46 521.7C549.45 524.02 545.13 529.28 545.13 535.81C544.81 542.76 550.08 548.87 558.82 548.87C567.14 548.87 572.52 543.71 572.52 536.65ZM547.03 502.42C547.03 509.27 552.19 512.96 560.09 515.06C565.98 513.06 570.51 508.85 570.51 502.63C570.51 497.16 567.25 491.47 558.93 491.47C551.24 491.48 547.03 496.53 547.03 502.42Z" />
			</g>
		</g>
	</g>
	<g id="Layer">
	</g>
	<g id="Layer">
	</g>
	<g id="Layer">
	</g>
	<g id="Layer">
	</g>
	<g id="Layer">
	</g>
	<g id="Layer">
	</g>
	<g id="Layer">
	</g>
	<g id="Layer">
	</g>
	<g id="Layer">
	</g>
	<g id="Layer">
	</g>
	<g id="Layer">
	</g>
	<g id="Layer">
	</g>
	<g id="Layer">
	</g>
	<g id="Layer">
	</g>
	<g id="Layer">
	</g>
</svg>