<svg xmlns="http://www.w3.org/2000/svg" viewBox="0 0 512 512" width="512" height="512">
	<style>
		tspan { white-space:pre }
		.shp0 { fill: none;stroke: #000000;stroke-linecap:round;stroke-linejoin:round;stroke-width: 32 } 
		.shp1 { fill: #ffffff } 
		.shp2 { fill: #21d19f } 
	</style>
	<g id="Layer">
		<path id="Layer" class="shp0" d="" />
		<path id="Layer" class="shp0" d="" />
		<path id="Layer" class="shp1" d="M236.94 237.11L6.94 140.27C3.64 138.88 0 141.3 0 144.88L0 403.77C0 410.32 3.98 416.2 10.06 418.63L233.14 507.86C236.43 509.18 240 506.76 240 503.22L240 241.72C240 239.7 238.79 237.89 236.94 237.11L236.94 237.11Z" />
		<path id="Shape 1 copy" class="shp2" d="M40 234.6L41.96 213L184.96 274L183 295.6L40 234.6Z" />
		<path id="Layer" class="shp1" d="M257.94 209.6L480.25 115.99C484.25 114.31 484.36 108.68 480.43 106.85L262.77 5.28C258.48 3.27 253.52 3.27 249.23 5.28L31.57 106.85C27.64 108.68 27.75 114.31 31.74 115.99L254.06 209.6C255.3 210.12 256.7 210.12 257.94 209.6L257.94 209.6Z" />
		<path id="Layer" class="shp1" d="M272 241.72L272 503.22C272 506.76 275.57 509.18 278.86 507.86L501.94 418.63C508.02 416.2 512 410.32 512 403.77L512 144.88C512 141.3 508.36 138.88 505.06 140.27L275.06 237.11C273.21 237.89 272 239.7 272 241.72L272 241.72Z" />
	</g>
</svg>