<svg xmlns="http://www.w3.org/2000/svg" width="88.364" height="88.364" viewBox="0 0 88.364 88.364">
  <path id="cancel" d="M47.182,91.364A44.182,44.182,0,1,1,91.364,47.182,44.181,44.181,0,0,1,47.182,91.364ZM67.441,34.3a2.129,2.129,0,0,0,0-3.008l-4.513-4.51a2.129,2.129,0,0,0-3.008,0L47.138,39.562,34.356,26.78a2.129,2.129,0,0,0-3.008,0l-4.513,4.51a2.129,2.129,0,0,0,0,3.008L39.62,47.083,26.834,59.862a2.129,2.129,0,0,0,0,3.008l4.513,4.513a2.129,2.129,0,0,0,3.008,0L47.138,54.6,59.92,67.383a2.129,2.129,0,0,0,3.008,0l4.513-4.513a2.129,2.129,0,0,0,0-3.008L54.655,47.083,67.441,34.3Z" transform="translate(-3 -3)" fill="#76706b"/>
</svg>
