<svg xmlns="http://www.w3.org/2000/svg" xmlns:xlink="http://www.w3.org/1999/xlink" width="28.88" height="36.559" viewBox="0 0 28.88 36.559">
  <defs>
    <filter id="chevron-down" x="0" y="0" width="28.88" height="36.559" filterUnits="userSpaceOnUse">
      <feOffset dy="3" input="SourceAlpha"/>
      <feGaussianBlur stdDeviation="3" result="blur"/>
      <feFlood flood-opacity="0.161"/>
      <feComposite operator="in" in2="blur"/>
      <feComposite in="SourceGraphic"/>
    </filter>
  </defs>
  <g transform="matrix(1, 0, 0, 1, 0, 0)" filter="url(#chevron-down)">
    <path id="chevron-down-2" data-name="chevron-down" d="M7.226,12.077a1.7,1.7,0,0,1,2.522,0L16,18.072l6.253-5.995a1.7,1.7,0,0,1,2.518,0,1.9,1.9,0,0,1,0,2.584c-.65.669-7.512,7.2-7.512,7.2a1.75,1.75,0,0,1-2.521,0s-6.859-6.534-7.512-7.2a1.9,1.9,0,0,1,0-2.584Z" transform="translate(-2.52 31.28) rotate(-90)" fill="#dfdfdf"/>
  </g>
</svg>
