<svg xmlns="http://www.w3.org/2000/svg" width="88.19" height="79.145" viewBox="0 0 88.19 79.145">
  <g id="Group_476" data-name="Group 476" transform="translate(0 0)">
    <path id="clock" d="M46.551,52.946,31.658,38.053V18.09H40.7V34.308L52.946,46.551ZM36.18,0a36.18,36.18,0,1,0,36.18,36.18A36.179,36.179,0,0,0,36.18,0Zm0,63.316A27.135,27.135,0,1,1,63.316,36.18,27.137,27.137,0,0,1,36.18,63.316Z" transform="translate(15.829 6.784)" fill="#62bccc"/>
    <path id="notice" d="M20.59,3.5A18.09,18.09,0,1,0,38.68,21.59,18.09,18.09,0,0,0,20.59,3.5Zm0,28.353a2.087,2.087,0,1,1,2.087-2.087A2.087,2.087,0,0,1,20.59,31.853Zm2.087-9.045a2.087,2.087,0,0,1-4.175,0V13.067a2.087,2.087,0,0,1,4.175,0Z" transform="translate(-2.5 -3.5)" fill="#62bccc"/>
  </g>
</svg>
