<svg id="Create_Account" data-name="Create Account" xmlns="http://www.w3.org/2000/svg" viewBox="0 0 62.92 71.14"><defs><style>.cls-1{fill:#148cb3;}.cls-2{fill:#b5cddc;}.cls-19,.cls-3{fill:#fff;}.cls-3,.cls-4{stroke:#b5cddc;stroke-miterlimit:10;}.cls-4{fill:none;}.cls-5{fill:#4072a0;}.cls-6{fill:#ffd149;}.cls-7{fill:#f3eb30;}.cls-8{fill:#dddd1f;}.cls-9{fill:#e6e8cd;}.cls-10{fill:#d0d2bb;}.cls-11{fill:#282826;}.cls-12{fill:#9d9d99;}.cls-13{fill:#7b7a7a;}.cls-14{fill:#de97b8;}.cls-15{fill:#c487a6;}.cls-16{fill:#d8eaf8;}.cls-17{fill:#f89822;}.cls-18{fill:#65c9ee;}</style></defs><ellipse class="cls-1" cx="49.68" cy="69.43" rx="13.11" ry="1.72"/><path class="cls-2" d="M48.82,44c1.09-5.75,12.12-5.07,12,1.38-.11,4.19-7.9,26.32-11,25.66S47.72,49.71,48.82,44Z" transform="translate(-0.62 -0.65)"/><path class="cls-2" d="M48.43,44.16l-.3,2.29s-3.5,2.63-3.73,2S48.43,44.16,48.43,44.16Z" transform="translate(-0.62 -0.65)"/><circle class="cls-3" cx="21.2" cy="33.02" r="20.7"/><path class="cls-2" d="M13.6,47.47c0-7.94,16.42-9,16.76-.23.21,5.51-1.09,7.16-7.62,7.13C16,54.33,13.58,55.41,13.6,47.47Z" transform="translate(-0.62 -0.65)"/><path class="cls-1" d="M22,41.78S20.7,55,22.64,54.72c2.85-.35,7.28.58,7.12-7C29.16,41.16,22.82,41.46,22,41.78Z" transform="translate(-0.62 -0.65)"/><circle class="cls-4" cx="21.2" cy="33.02" r="20.7"/><path id="cog" class="cls-5" d="M51,19a4.58,4.58,0,0,1,3.92-2.57,14,14,0,0,0,0-2.9,4.31,4.31,0,0,1-3.42-3,4.2,4.2,0,0,1,.69-4.42,14.12,14.12,0,0,0-2-2.07,5.08,5.08,0,0,1-4.9.71,5,5,0,0,1-2.87-4,14,14,0,0,0-2.9,0,4.18,4.18,0,0,1-2.71,3.55,4.31,4.31,0,0,1-4.54-.4,13.64,13.64,0,0,0-2.07,2A4.58,4.58,0,0,1,31,10.49a5.06,5.06,0,0,1-4,2.88,14,14,0,0,0,0,2.89,4.36,4.36,0,0,1,2.86,7.13,14.12,14.12,0,0,0,2,2.07,5.07,5.07,0,0,1,4.91-.72,5.1,5.1,0,0,1,2.87,4.05,15.5,15.5,0,0,0,2.89,0,4.18,4.18,0,0,1,2.72-3.56,4.33,4.33,0,0,1,4.54.41,14.12,14.12,0,0,0,2.07-2A4.6,4.6,0,0,1,51,19ZM38.72,20.14a5.84,5.84,0,1,1,7.67-3.08h0a5.84,5.84,0,0,1-7.67,3.08Z" transform="translate(-0.62 -0.65)"/><path class="cls-1" d="M55.65,41s-7,29.89-5.57,29.84,9.38-18.3,10.3-25.66C60.54,41.84,56.3,40.86,55.65,41Z" transform="translate(-0.62 -0.65)"/><path id="cog-2" data-name="cog" class="cls-6" d="M54.3,34.84a3.08,3.08,0,0,1,3.08-.58,9.35,9.35,0,0,0,.76-1.78,2.88,2.88,0,0,1-1.34-2.73,2.77,2.77,0,0,1,1.56-2.54,9.66,9.66,0,0,0-.72-1.8,3.36,3.36,0,0,1-3.2-.81,3.4,3.4,0,0,1-.74-3.23,9.54,9.54,0,0,0-1.77-.76,2.77,2.77,0,0,1-2.59,1.49,2.86,2.86,0,0,1-2.69-1.41,9.66,9.66,0,0,0-1.8.72,3.07,3.07,0,0,1-.66,3.06A3.4,3.4,0,0,1,41,25.2,9.54,9.54,0,0,0,40.2,27a2.92,2.92,0,0,1-.06,5.13,8.76,8.76,0,0,0,.71,1.8,3.16,3.16,0,0,1,3.94,4,9.63,9.63,0,0,0,1.78.76,2.78,2.78,0,0,1,2.58-1.49,2.9,2.9,0,0,1,2.7,1.41,9.57,9.57,0,0,0,1.79-.72A3.09,3.09,0,0,1,54.3,34.84Zm-7.85-2.46a3.9,3.9,0,1,1,5.52.07h0a3.91,3.91,0,0,1-5.52-.07Z" transform="translate(-0.62 -0.65)"/><circle class="cls-2" cx="56.96" cy="32.32" r="5.96"/><path class="cls-1" d="M59.35,36.16l-7.09-2.3S54.06,40.68,59.35,36.16Z" transform="translate(-0.62 -0.65)"/><circle class="cls-2" cx="21.2" cy="29.68" r="8.1"/><path class="cls-1" d="M26.88,33.89l-10.13-.22S21.76,41.83,26.88,33.89Z" transform="translate(-0.62 -0.65)"/><g id="Pencil"><polygon class="cls-7" points="29.89 31.8 58.27 56.12 55.77 59.47 27.08 34.69 29.89 31.8"/><path class="cls-8" d="M57.84,58.17S45.36,50.24,29.35,33.64l-1.65,1.7L56.39,60.12l1.45-1.95" transform="translate(-0.62 -0.65)"/><path class="cls-9" d="M24.2,30.18s5.44,1.53,6.3,2.27-.88,5.57-2.8,2.89S24.2,30.18,24.2,30.18Z" transform="translate(-0.62 -0.65)"/><path class="cls-10" d="M30.23,35l-4-3.26-.71.49C25.89,32.74,28.57,38.56,30.23,35Z" transform="translate(-0.62 -0.65)"/><path class="cls-11" d="M26.77,31s.67,2-1,1.56L24.2,30.18Z" transform="translate(-0.62 -0.65)"/><polygon class="cls-12" points="26.06 30.84 25.98 30.4 24.2 29.89 26.06 30.84"/><path class="cls-12" d="M57.94,56s.73,3.18-2.41,3.42L57,60.73a3.46,3.46,0,0,0,1.85-4Z" transform="translate(-0.62 -0.65)"/><path class="cls-12" d="M56.28,60" transform="translate(-0.62 -0.65)"/><path class="cls-13" d="M58.36,59.61s-.88-.43-1.09-.9a3.15,3.15,0,0,1-1.74.67L57,60.73A5.13,5.13,0,0,0,58.36,59.61Z" transform="translate(-0.62 -0.65)"/><path class="cls-14" d="M58.89,56.77l-1.85,4s3.26,3,3.86,1.32C61.36,60.75,63.07,60,58.89,56.77Z" transform="translate(-0.62 -0.65)"/><path class="cls-15" d="M57.6,59.53l3.26,2.37s-.23.65-.68.58-.66.13-3.09-1.86Z" transform="translate(-0.62 -0.65)"/></g><path class="cls-2" d="M59.83,48.29s-13.48,7.8-14.48,6.22,15.13-11.66,15.53-9.42A3.14,3.14,0,0,1,59.83,48.29Z" transform="translate(-0.62 -0.65)"/><path class="cls-16" d="M59.66,46S48.21,52.61,47,52.65s12.45-8,13.14-7.7S59.66,46,59.66,46Z" transform="translate(-0.62 -0.65)"/><path id="cog-3" data-name="cog" class="cls-17" d="M23.85,15.85a2.1,2.1,0,0,1,1.55,1.51,6.37,6.37,0,0,0,1.3-.26,2,2,0,0,1,1-1.84,1.92,1.92,0,0,1,2.06-.11A7,7,0,0,0,30.53,14a2.32,2.32,0,0,1-.8-2.14,2.37,2.37,0,0,1,1.54-1.69A6.37,6.37,0,0,0,31,8.9,1.94,1.94,0,0,1,29.14,8a2,2,0,0,1-.26-2.08,6,6,0,0,0-1.11-.74,2.09,2.09,0,0,1-2,.82,2.35,2.35,0,0,1-1.69-1.54,6.37,6.37,0,0,0-1.3.26,2,2,0,0,1-2.94,2,6,6,0,0,0-.74,1.11A2.36,2.36,0,0,1,19.9,10a2.38,2.38,0,0,1-1.55,1.69A6.63,6.63,0,0,0,18.62,13a1.9,1.9,0,0,1,1.86.88,2,2,0,0,1,.26,2.09,7.39,7.39,0,0,0,1.11.74A2.09,2.09,0,0,1,23.85,15.85Zm-1.68-5.44a2.7,2.7,0,1,1,2.13,3.17h0a2.69,2.69,0,0,1-2.13-3.17Z" transform="translate(-0.62 -0.65)"/><path id="circle-with-plus" class="cls-18" d="M7,43.82A5.92,5.92,0,1,0,13,49.74,5.92,5.92,0,0,0,7,43.82Zm3.52,6.63H7.74v2.82H6.33V50.45H3.51V49H6.33V46.22H7.74V49h2.82Z" transform="translate(-0.62 -0.65)"/><rect class="cls-19" x="5.72" y="45.57" width="1.41" height="7.05"/><rect class="cls-19" x="6.33" y="46.22" width="1.41" height="7.05" transform="translate(56.16 42.05) rotate(90)"/></svg>