<svg xmlns="http://www.w3.org/2000/svg" width="63.238" height="63.242" viewBox="0 0 63.238 63.242">
  <path id="cycle" d="M17.208,50.787a24,24,0,0,1,.494-33.2,23.433,23.433,0,0,1,13.163-6.695L30.6,2.879a31.282,31.282,0,0,0-18.5,9.066,32,32,0,0,0-.475,44.464L4.914,63.164l21.246,1.162L26.1,41.831l-8.9,8.958ZM42.838,4.674,42.9,27.169l8.9-8.953a24,24,0,0,1-.494,33.2,23.426,23.426,0,0,1-13.163,6.695l.265,8.006A31.329,31.329,0,0,0,56.9,57.06,32,32,0,0,0,57.37,12.6l6.714-6.762L42.838,4.677Z" transform="translate(-2.881 -2.879)" fill="#62bccc"/>
</svg>
