<svg xmlns="http://www.w3.org/2000/svg" width="31.697" height="30.706" viewBox="0 0 31.697 30.706">
  <g id="Active" transform="translate(-7.925)">
    <g id="dropbox" transform="translate(7.925)">
      <path id="Path_996" data-name="Path 996" d="M22.934,1,16,6.943l8.915,5.943,6.934-5.943Z" transform="translate(-0.152 -1)" fill="#452092"/>
      <path id="Path_997" data-name="Path 997" d="M15.848,6.943,8.915,1,0,6.943l6.934,5.943Z" transform="translate(0 -1)" fill="#452092"/>
      <path id="Path_998" data-name="Path 998" d="M24.915,13l6.934,5.943L22.934,23.9,16,17.953Z" transform="translate(-0.152 -1.114)" fill="#452092"/>
      <path id="Path_999" data-name="Path 999" d="M15.848,17.953,6.934,13,0,18.943,8.915,23.9Z" transform="translate(0 -1.114)" fill="#452092"/>
      <path id="Path_1000" data-name="Path 1000" d="M22.587,26.369,15.9,20.634,9.2,26.369,5,24.033V26.94l10.9,4.953,10.9-4.953V24.033Z" transform="translate(-0.047 -1.186)" fill="#452092"/>
    </g>
  </g>
</svg>
