<svg id="Forgot_Password" data-name="Forgot Password" xmlns="http://www.w3.org/2000/svg" viewBox="0 0 63.42 56.37"><defs><style>.cls-1{fill:#f3b876;}.cls-2{fill:#eba15e;}.cls-3{fill:#205c9b;}.cls-4{fill:#65c9ee;}.cls-5{fill:#f2f2f3;}.cls-6{fill:#fff;}.cls-7{fill:#e98a34;}.cls-10,.cls-8{fill:#148cb3;}.cls-9{fill:#ee2b27;}.cls-10{opacity:0.23;}</style></defs><polygon class="cls-1" points="11.38 33.54 0 39.53 61.74 39.53 48.15 33.36 11.38 33.54"/><path class="cls-2" d="M20,35.11H44.18a.33.33,0,0,1,.21.07l2.22,1.63c.33.25.18.86-.22.86H17.81a.48.48,0,0,1-.22-.86l2.19-1.63A.34.34,0,0,1,20,35.11Z" transform="translate(-2.25 -0.75)"/><rect class="cls-3" x="11.38" width="39.51" height="28.26" rx="2.22"/><rect class="cls-4" x="10.55" width="39.51" height="28.26" rx="3.19"/><polygon class="cls-3" points="25.93 29.25 35.85 29.25 36.12 33.5 38.17 35.52 38.17 36.17 23.64 36.06 23.65 35.4 25.74 33.49 25.93 29.25"/><polygon class="cls-4" points="25.37 29.25 35.29 29.25 35.56 33.5 37.62 35.52 37.62 36.17 23.09 36.06 23.1 35.4 25.19 33.49 25.37 29.25"/><rect class="cls-5" x="12.29" y="1.51" width="36.17" height="23.28" rx="1.99"/><rect class="cls-6" x="15.23" y="11.39" width="30.29" height="4.69" rx="0.94"/><path class="cls-3" d="M20.6,12.79,20.46,14l.89-.78.43.71-1.17.47,1.17.47-.43.71-.89-.79L20.6,16h-.78L20,14.8l-.88.79-.42-.71,1.16-.48-1.17-.46.43-.72L20,14l-.13-1.22Z" transform="translate(-2.25 -0.75)"/><path class="cls-3" d="M24.12,12.79,24,14l.88-.78.44.71-1.18.47,1.17.47-.43.71L24,14.8,24.12,16h-.77l.14-1.23-.88.79-.43-.71,1.16-.48-1.17-.46.44-.72.87.79-.13-1.22Z" transform="translate(-2.25 -0.75)"/><path class="cls-3" d="M27.65,12.79,27.51,14l.89-.78.44.71-1.18.47,1.17.47-.43.71-.89-.79L27.65,16h-.77L27,14.8l-.88.79-.42-.71,1.16-.48-1.17-.46.43-.72L27,14l-.13-1.22Z" transform="translate(-2.25 -0.75)"/><path class="cls-3" d="M31.18,12.79,31,14l.89-.78.43.71-1.18.47,1.17.47-.42.71L31,14.8,31.18,16H30.4l.14-1.23-.88.79-.43-.71,1.16-.48-1.17-.46.44-.72.87.79-.13-1.22Z" transform="translate(-2.25 -0.75)"/><path class="cls-3" d="M34.7,12.79,34.57,14l.88-.78.44.71-1.18.47,1.17.47-.43.71-.88-.79L34.7,16h-.77l.13-1.23-.87.79-.43-.71,1.16-.48-1.17-.46.44-.72.87.79-.13-1.22Z" transform="translate(-2.25 -0.75)"/><path class="cls-3" d="M38.23,12.79,38.09,14l.89-.78.43.71-1.17.47,1.16.47-.42.71-.89-.79L38.23,16h-.78l.14-1.23-.88.79-.43-.71,1.17-.48-1.17-.46.43-.72.87.79-.13-1.22Z" transform="translate(-2.25 -0.75)"/><path class="cls-3" d="M41.75,12.79,41.62,14l.88-.78.44.71-1.18.47,1.17.47-.43.71-.88-.79L41.75,16H41l.14-1.23-.88.79-.43-.71L41,14.4l-1.17-.46.44-.72.87.79L41,12.79Z" transform="translate(-2.25 -0.75)"/><path class="cls-3" d="M45.28,12.79,45.14,14l.89-.78.43.71-1.17.47,1.17.47-.43.71-.89-.79L45.28,16h-.77l.13-1.23-.88.79-.42-.71,1.16-.48-1.17-.46.43-.72.87.79-.12-1.22Z" transform="translate(-2.25 -0.75)"/><rect class="cls-7" y="39.53" width="61.74" height="2.02"/><circle class="cls-8" cx="46.12" cy="20.34" r="8.5"/><path class="cls-8" d="M43.48,38.61C43.35,30.28,59,28,60.58,37.1c1.06,5.88-3.64,20-8.16,20S43.61,47,43.48,38.61Z" transform="translate(-2.25 -0.75)"/><path id="new" class="cls-9" d="M65.39,14.92l-1.57-1.4a1,1,0,0,1-.11-1.36l.11-.11,1.57-1.4c.46-.4.33-.78-.27-.84L63,9.62a.83.83,0,0,1-.79-.85,1.08,1.08,0,0,1,.07-.31l1.11-3.07c.2-.58,0-.79-.57-.47L60.41,6.44A1.05,1.05,0,0,1,59,6.11l0-.06L58,4.47a.58.58,0,0,0-.73-.38.59.59,0,0,0-.37.37l-.83,1.43a1.23,1.23,0,0,1-1.55.51L53.1,5.73c-.55-.25-1,0-.94.65l.08,1.47a1.44,1.44,0,0,1-1,1.4l-1.4.38c-.58.16-.69.62-.24,1l1.57,1.4a1,1,0,0,1,.11,1.36.57.57,0,0,1-.11.11l-1.56,1.4c-.46.41-.34.8.26.87l1.91.23a.87.87,0,0,1,.8.94,1,1,0,0,1-.06.25l-1,3c-.19.58.08.8.61.5l2.24-1.3a1.2,1.2,0,0,1,1.57.37l.93,1.4a.59.59,0,0,0,.79.31.58.58,0,0,0,.33-.37l.82-1.57a1.13,1.13,0,0,1,1.5-.5l1.58.79c.54.27,1,0,.92-.62l-.07-1.47a1.42,1.42,0,0,1,1-1.4l1.4-.38c.59-.15.7-.61.24-1Z" transform="translate(-2.25 -0.75)"/><path class="cls-3" d="M51.88,32.47s.5,22.93,2.5,22.45,6.15-7.43,5.32-18C59,32.27,52.76,32.12,51.88,32.47Z" transform="translate(-2.25 -0.75)"/><rect class="cls-10" x="15.23" y="8.05" width="18.79" height="2.63"/><path class="cls-6" d="M54.52,14.11v-.19a2.32,2.32,0,0,1,1-1.82,1.3,1.3,0,0,0,.54-1,.64.64,0,0,0-.7-.69c-.57,0-.76.39-.81.87H53.14a2,2,0,0,1,2.25-2,1.85,1.85,0,0,1,2.12,1.84,2.15,2.15,0,0,1-.92,1.73A1.45,1.45,0,0,0,56,14v.11Zm0,2.18V14.63H56v1.66Z" transform="translate(-2.25 -0.75)"/><path class="cls-6" d="M59.19,13.78,59,10.58V9.39h1.53v1.2l-.18,3.19ZM59,16.29V14.63h1.42v1.66Z" transform="translate(-2.25 -0.75)"/><path id="warning" class="cls-10" d="M39.75,11.27l-1.4-2.62a.11.11,0,0,0-.15,0l0,0-1.4,2.62a.09.09,0,0,0,0,.1.1.1,0,0,0,.09.06h2.8a.11.11,0,0,0,.1-.06.09.09,0,0,0,0-.1Zm-1.34-.16H38.1V10.8h.31Zm0-.55H38.1v-1h.31Z" transform="translate(-2.25 -0.75)"/></svg>