<svg id="Password_Email" data-name="Password Email" xmlns="http://www.w3.org/2000/svg" viewBox="0 0 55.88 30.12"><defs><style>.cls-1{fill:#f89822;}.cls-2{fill:#148cb3;}.cls-3{fill:#b5cddc;}.cls-4{fill:#fff;}.cls-5{fill:#ffd149;}.cls-6,.cls-9{fill:none;}.cls-6{stroke:#d07e29;}.cls-17,.cls-6,.cls-8,.cls-9{stroke-miterlimit:10;}.cls-6,.cls-8{stroke-width:0.25px;}.cls-7{fill:#464fa1;}.cls-17,.cls-8{fill:#e46253;stroke:#fff;}.cls-9{stroke:#464fa1;stroke-linecap:round;}.cls-10{fill:#f5c258;}.cls-11{fill:#205c9b;}.cls-12{fill:#cd212d;}.cls-13{fill:#ec2629;}.cls-14{fill:#ba6c29;}.cls-15{fill:#f7a042;}.cls-16{fill:#a95d26;}.cls-17{stroke-width:0.1px;}</style></defs><rect class="cls-1" x="31.28" width="23.78" height="17" rx="0.72"/><rect class="cls-2" x="30.91" width="23.78" height="17" rx="0.72"/><polygon class="cls-3" points="52.71 22.51 31.93 22.51 35.1 20.68 55.88 20.68 52.71 22.51"/><rect class="cls-4" x="31.93" y="0.85" width="21.74" height="13.97"/><polygon class="cls-1" points="40.16 17.6 46.14 17.6 46.3 20.16 47.54 21.37 47.54 21.77 38.79 21.7 38.8 21.3 40.06 20.15 40.16 17.6"/><polygon class="cls-2" points="39.83 17.6 45.8 17.6 45.97 20.16 47.2 21.37 47.2 21.77 38.46 21.7 38.46 21.3 39.72 20.15 39.83 17.6"/><rect class="cls-5" x="48.75" y="14.1" width="4.82" height="7.67" rx="0.41"/><path class="cls-1" d="M39.89,5.09h5.89a2.14,2.14,0,0,1,2.14,2.14v3.59a.24.24,0,0,1-.24.24H38a.24.24,0,0,1-.24-.24V7.24A2.15,2.15,0,0,1,39.89,5.09Z"/><path class="cls-6" d="M39.58,5.22h.1A1.83,1.83,0,0,1,41.5,7v3.83a.08.08,0,0,1-.08.08H37.88a.13.13,0,0,1-.13-.13V7a1.83,1.83,0,0,1,1.83-1.83Z"/><rect class="cls-7" x="48.45" y="14.1" width="4.82" height="7.67" rx="0.41"/><rect class="cls-4" x="48.8" y="14.44" width="4.13" height="6.25"/><circle class="cls-5" cx="50.91" cy="21.28" r="0.32"/><circle class="cls-4" cx="50.84" cy="21.28" r="0.32"/><circle class="cls-8" cx="47.78" cy="4.71" r="1.74"/><path class="cls-4" d="M48.24,4.86h0L47.9,5l0-.2.42-.23h.22V6.54h-.25Z" transform="translate(-0.5 -0.83)"/><path class="cls-9" d="M14.1,25.53c-7.19,5.22-12.18-2.24-8.36-3.85,5.54-2.34,4.93,9.76-4.74,8.7" transform="translate(-0.5 -0.83)"/><path class="cls-7" d="M37.08,8.81a.38.38,0,0,1,.3.59c-1.64,2.89-12.19,17.38-12.84,17.4s-3.42-4-3.83-3.85-4.44,2.66-4.87,2.45S16,17.68,15.4,17s-4.8-4.6-4.57-5.41C11.11,10.6,33.36,8.57,37.08,8.81Z" transform="translate(-0.5 -0.83)"/><polygon class="cls-4" points="31.56 10.87 15.99 16.24 16.08 22.17 18.36 19.22 31.56 10.87"/><path class="cls-10" d="M14.36,7.08l16.51.72,1.47,4.54S24.43,20,19.65,21.67C15.49,20.71,14.35,7.09,14.36,7.08Z" transform="translate(-0.5 -0.83)"/><path class="cls-4" d="M14.36,7.08l11.69,4.29,4.39-3.59.43,0L26.34,12,14.54,8.57S14.35,7.19,14.36,7.08Z" transform="translate(-0.5 -0.83)"/><path class="cls-7" d="M18.27,20.82S23,25,24.54,26.8L35.62,12.11l-3.56-.4Z" transform="translate(-0.5 -0.83)"/><path class="cls-4" d="M30.84,12.09l-9.33,5.66c-.46.27-1,.17-1.11-.25l-.73-2.07a.81.81,0,0,1,.6-.93L30,11c.07,0,.21,0,.3.16l.52.65C30.87,11.91,30.9,12.05,30.84,12.09Z" transform="translate(-0.5 -0.83)"/><path class="cls-11" d="M22.06,14.27l.22.75.38-.7.45.28-.63.62.88-.09-.07.55-.8-.18.43.73-.54.3-.24-.85-.45.86-.53-.32.76-.75-1,.12.16-.62.86.21-.41-.7Z" transform="translate(-0.5 -0.83)"/><path class="cls-11" d="M24.1,13.47l.24.62.23-.56.38.24-.43.49.68,0v.45l-.64-.18.41.6-.4.22-.26-.69-.26.66L23.6,15l.51-.58-.77.06.06-.5.68.21-.38-.58Z" transform="translate(-0.5 -0.83)"/><path class="cls-11" d="M25.64,12.86l.25.53.14-.46.33.22-.31.39h.54l0,.37-.53-.17.38.52-.3.16-.27-.58-.15.54-.37-.24.36-.45-.61,0v-.41l.56.19-.35-.5Z" transform="translate(-0.5 -0.83)"/><path class="cls-11" d="M26.85,12.39l.25.46.08-.39.29.19-.23.33h.45l0,.32-.45-.17.34.46-.23.13-.26-.51-.09.46-.32-.22.26-.37h-.5l0-.35.47.18-.33-.44Z" transform="translate(-0.5 -0.83)"/><path class="cls-11" d="M27.82,12l.24.41,0-.34.26.17-.17.28.38,0,.06.28-.39-.15.32.4-.19.1-.25-.44,0,.39-.28-.19.19-.32-.42,0-.05-.29.41.17-.31-.39Z" transform="translate(-0.5 -0.83)"/><path class="cls-11" d="M28.62,11.7l.23.36v-.3l.23.17-.13.24.33,0,.07.24L29,12.29l.3.36-.16.09-.24-.39v.33l-.25-.17.14-.27-.35,0L28.38,12l.36.16-.29-.35Z" transform="translate(-0.5 -0.83)"/><path class="cls-11" d="M29.28,11.44l.23.33V11.5l.21.15-.1.21.29,0,.07.22-.3-.14.28.32-.13.07L29.58,12v.3l-.22-.16.1-.24-.3,0-.07-.23.32.15-.27-.32Z" transform="translate(-0.5 -0.83)"/><path class="cls-11" d="M29.85,11.21l.21.31,0-.25.19.15-.07.18.25,0,.08.2-.28-.13.27.3-.11.06-.23-.32,0,.26L30,11.86l.08-.2-.27,0-.07-.21.29.14-.26-.29Z" transform="translate(-0.5 -0.83)"/><path class="cls-12" d="M45.1,5.37l0-1-1.88-.34s.34,3.95.35,4.13.11.56.45.43.23-1.06-.11-.89l-.14-2.32Z" transform="translate(-0.5 -0.83)"/><path class="cls-13" d="M45,5.37l-.05-1-1.87-.34s.33,3.95.35,4.13.1.56.45.43.22-1.06-.11-.89l-.15-2.32Z" transform="translate(-0.5 -0.83)"/><path class="cls-14" d="M39.58,5.22h.1A1.83,1.83,0,0,1,41.5,7v3.83a.08.08,0,0,1-.08.08H37.88a.13.13,0,0,1-.13-.13V7a1.83,1.83,0,0,1,1.83-1.83Z"/><path class="cls-15" d="M41.92,11.78l-2.74,1.76a2.17,2.17,0,0,1-1.17.13l-1.8-.23c-.33,0-.45-.16-.29-.27l2.35-1.46Z" transform="translate(-0.5 -0.83)"/><path class="cls-16" d="M40.06,11.73V7.62a1.23,1.23,0,0,1,1.23-1.18A1.91,1.91,0,0,1,42,7.78v3.93a.09.09,0,0,1-.08.07C41.85,11.79,40.06,11.73,40.06,11.73Z" transform="translate(-0.5 -0.83)"/><path class="cls-1" d="M50,16.88h1.9a.47.47,0,0,1,.47.47v1.3a.08.08,0,0,1-.08.08H49.51a0,0,0,0,1,0,0V17.36A.48.48,0,0,1,50,16.88Z"/><path class="cls-6" d="M50,17h0a.5.5,0,0,1,.5.5v1.1a0,0,0,0,1,0,0h-1a0,0,0,0,1,0,0V17.51A.5.5,0,0,1,50,17Z"/><path class="cls-12" d="M51.92,17.65v-.26l-.52-.1s.09,1.11.09,1.16,0,.15.13.12.06-.3,0-.25l0-.65Z" transform="translate(-0.5 -0.83)"/><path class="cls-13" d="M51.9,17.65v-.26l-.52-.1s.09,1.11.09,1.16,0,.15.13.12.06-.3,0-.25l0-.65Z" transform="translate(-0.5 -0.83)"/><circle class="cls-17" cx="52.05" cy="16.65" r="0.68"/><path class="cls-4" d="M52.53,17.22h0l-.13.07,0-.08.17-.09h.08v.75h-.1Z" transform="translate(-0.5 -0.83)"/><path class="cls-14" d="M50,17h0a.53.53,0,0,1,.53.53v1.06a0,0,0,0,1,0,0h-1a0,0,0,0,1,0,0v-1A.53.53,0,0,1,50,17Z"/><path class="cls-15" d="M51,19.45l-.76.49a.66.66,0,0,1-.33,0l-.5-.06c-.1,0-.13-.05-.08-.08l.65-.4Z" transform="translate(-0.5 -0.83)"/><path class="cls-16" d="M50.51,19.43V18.28a.35.35,0,0,1,.35-.33.55.55,0,0,1,.2.38v1.09l0,0Z" transform="translate(-0.5 -0.83)"/><path id="locked" class="cls-11" d="M25,10.51l-.7-1,.48,0L24.49,9c-.28-.48.18-.89.91-.81h.14a1,1,0,0,1,1,.75l0,.32.23,0,0,.75Zm.91-.65v.27l.25-.05L26,9.84c.09,0,.12-.11.07-.16a.28.28,0,0,0-.27,0c-.09,0-.12.12-.06.17A.25.25,0,0,0,25.87,9.86ZM26.28,9c0-.23-.34-.45-.71-.47s-.72.22-.58.51l.17.37,1.17-.11Z" transform="translate(-0.5 -0.83)"/></svg>