<svg id="Have_a_Question" data-name="Have a Question" xmlns="http://www.w3.org/2000/svg" viewBox="0 0 45.07 54.35"><defs><style>.cls-1{fill:#ffd149;}.cls-2{fill:#f89822;}.cls-3{fill:#feeebf;}.cls-4{fill:#148cb3;}.cls-5,.cls-6{fill:none;}.cls-5,.cls-6,.cls-7{stroke:#f89824;}.cls-10,.cls-11,.cls-5,.cls-6,.cls-7{stroke-miterlimit:10;}.cls-6{stroke-width:0.5px;}.cls-11,.cls-7{fill:#fff;stroke-width:0.25px;}.cls-8{fill:#692f90;}.cls-9{fill:#65c9ee;}.cls-10{fill:#66c9ed;}.cls-10,.cls-11{stroke:#ffd149;}.cls-12{fill:#f89824;}</style></defs><polygon class="cls-1" points="9.93 54.34 39.11 54.34 39.11 44.69 32.23 44.69 32.23 35.12 16.96 35.12 16.96 44.73 9.93 44.73 9.93 54.34"/><rect class="cls-2" x="27.81" y="35.12" width="4.41" height="9.61"/><rect class="cls-2" x="35.41" y="44.73" width="3.7" height="9.61"/><rect class="cls-2" x="20.93" y="44.73" width="3.7" height="9.61"/><rect class="cls-3" x="10.53" y="45.52" width="2.99" height="2.24"/><rect class="cls-3" x="24.91" y="45.52" width="2.99" height="2.24"/><rect class="cls-3" x="17.94" y="36.24" width="2.99" height="2.24"/><path class="cls-4" d="M14.18,52.63s-3-15.2-1.37-15.67,5.94,17.78,3.86,17.51A2.81,2.81,0,0,1,14.18,52.63Z" transform="translate(-1.1 -1.16)"/><path class="cls-4" d="M12.71,36.45c.34-.1.77.48,1.23,1.49a7.05,7.05,0,1,0-3.62,2.64,6.85,6.85,0,0,0,1.84-.9C12.08,37.88,12.21,36.59,12.71,36.45Z" transform="translate(-1.1 -1.16)"/><path class="cls-5" d="M21,4.34C22.12,2.58,24.72,0,29.55,3.13a3.38,3.38,0,0,0,2.63.44c2.44-.61,7.24-1.08,7.9,4.33a3.17,3.17,0,0,0,1.69,2.37c2.72,1.49,7.23,5,0,9.7a3.24,3.24,0,0,0-1.44,2.11c-.5,2.47-2.23,7.23-8.06,4.57a3.26,3.26,0,0,0-3,.15c-1.87,1.14-5.27,2.34-8-1.48A3.28,3.28,0,0,0,18.57,24c-2.81,0-7.6-1-4.66-8.45a3.16,3.16,0,0,0,.1-2.06c-.61-2-1.23-6.59,4.72-7.63A3.35,3.35,0,0,0,21,4.34Z" transform="translate(-1.1 -1.16)"/><circle class="cls-6" cx="16.82" cy="26.36" r="1.39"/><circle class="cls-7" cx="13.95" cy="30.19" r="0.95"/><path id="help" class="cls-8" d="M33.6,9.41A6.85,6.85,0,0,0,30,7.19a5.9,5.9,0,0,0-3.28,0,5.08,5.08,0,0,0-3.25,3.69l3,.83a3.13,3.13,0,0,1,1-1.55,1.94,1.94,0,0,1,1.95-.34,2.4,2.4,0,0,1,1.53,1.12A2.62,2.62,0,0,1,31,12.5a2.32,2.32,0,0,1-.86,1.14,2.74,2.74,0,0,1-.78.45,14.1,14.1,0,0,0-2.9,1.27,3.93,3.93,0,0,0-1.12,2.16c0,.07,0,.24.23.31l2.37.64a.26.26,0,0,0,.35-.15v0a2.84,2.84,0,0,1,.35-.77,2.57,2.57,0,0,1,1.2-.86l1-.35a9.58,9.58,0,0,0,2-1,4,4,0,0,0,1.41-2.09A4.06,4.06,0,0,0,33.6,9.41ZM26.42,20a2,2,0,0,0-1.13,3.74h0a1.88,1.88,0,0,0,2.41-1.11.84.84,0,0,0,.05-.17,1.9,1.9,0,0,0-1.18-2.41l-.15,0Z" transform="translate(-1.1 -1.16)"/><path id="help-2" data-name="help" class="cls-9" d="M33.72,8.17A6.84,6.84,0,0,0,30.07,6a5.72,5.72,0,0,0-3.28,0,5.08,5.08,0,0,0-3.25,3.69l3.05.82a3.22,3.22,0,0,1,1-1.54,2,2,0,0,1,2-.35A2.38,2.38,0,0,1,31,9.68a2.51,2.51,0,0,1,.07,1.58,2.32,2.32,0,0,1-.86,1.14,2.52,2.52,0,0,1-.78.45,14.67,14.67,0,0,0-2.9,1.27,3.93,3.93,0,0,0-1.12,2.16c0,.08,0,.24.23.31l2.38.65a.28.28,0,0,0,.35-.16v0a3.15,3.15,0,0,1,.35-.77,2.57,2.57,0,0,1,1.2-.86l1-.35a10.39,10.39,0,0,0,2-1,4,4,0,0,0,1.4-2.1A4.06,4.06,0,0,0,33.72,8.17ZM26.54,18.79a1.95,1.95,0,1,0-1.13,3.73h0a1.87,1.87,0,0,0,2.41-1.1l.06-.18a1.89,1.89,0,0,0-1.19-2.4l-.15-.05Z" transform="translate(-1.1 -1.16)"/><path class="cls-10" d="M16.87,13.59c-.21-1.15-1-3.05-4.22-2.4a1.87,1.87,0,0,1-1.47-.32c-1.16-.82-3.58-2.07-5,.64a1.81,1.81,0,0,1-1.38.9c-1.73.21-4.83,1.14-2,5.09a1.83,1.83,0,0,1,.32,1.4c-.25,1.4-.33,4.26,3.28,4.07a1.84,1.84,0,0,1,1.57.71,3,3,0,0,0,4.48.87,1.89,1.89,0,0,1,1.7-.15c1.47.58,4.19,1,4.19-3.47a1.75,1.75,0,0,1,.38-1.1c.74-.95,2-3.21-.9-5A1.93,1.93,0,0,1,16.87,13.59Z" transform="translate(-1.1 -1.16)"/><circle class="cls-11" cx="10.28" cy="25.98" r="0.79"/><circle class="cls-11" cx="10.77" cy="28.59" r="0.54"/><path class="cls-9" d="M16.58,54.1s-1.49-.37-1.47-.72c0,0,1.38.62,1.15,0L17,54S16.9,54.19,16.58,54.1Z" transform="translate(-1.1 -1.16)"/><path id="help-3" data-name="help" class="cls-12" d="M12.12,13.12a3.68,3.68,0,0,0-2.32,0A3.09,3.09,0,0,0,8.27,14a2.75,2.75,0,0,0-.51,2.61l1.65-.45a1.85,1.85,0,0,1,0-1,1.05,1.05,0,0,1,.82-.69,1.28,1.28,0,0,1,1,.1,1.4,1.4,0,0,1,.47.72,1.27,1.27,0,0,1-.09.77,1.58,1.58,0,0,1-.24.42,8,8,0,0,0-1,1.39,2,2,0,0,0,.07,1.32s0,.12.19.08L12,18.91a.14.14,0,0,0,.12-.17h0a1.75,1.75,0,0,1-.05-.46,1.43,1.43,0,0,1,.33-.73l.37-.44a5.23,5.23,0,0,0,.66-1,2.08,2.08,0,0,0,.08-1.37A2.19,2.19,0,0,0,12.12,13.12Zm-.44,6.93a1.06,1.06,0,1,0,.5,2.05h0A1,1,0,0,0,13,20.93a.3.3,0,0,0,0-.1,1,1,0,0,0-1.21-.8l-.09,0Z" transform="translate(-1.1 -1.16)"/><path id="help-4" data-name="help" class="cls-1" d="M11.56,13.12a3.65,3.65,0,0,0-2.31,0A3.12,3.12,0,0,0,7.71,14a2.75,2.75,0,0,0-.51,2.61l1.65-.45a1.85,1.85,0,0,1,0-1,1.05,1.05,0,0,1,.82-.69,1.28,1.28,0,0,1,1,.1,1.34,1.34,0,0,1,.47.72,1.27,1.27,0,0,1-.09.77,1.18,1.18,0,0,1-.24.42,8,8,0,0,0-1,1.39,2,2,0,0,0,.07,1.32s.05.12.19.08l1.29-.35a.15.15,0,0,0,.12-.17h0a1.41,1.41,0,0,1,0-.46,1.34,1.34,0,0,1,.32-.73l.37-.44a5.28,5.28,0,0,0,.67-1,2.33,2.33,0,0,0-1.28-3Zm-.44,6.93a1.06,1.06,0,0,0,.5,2.05h0a1,1,0,0,0,.83-1.17l0-.1a1,1,0,0,0-1.21-.8l-.09,0Z" transform="translate(-1.1 -1.16)"/><path class="cls-4" d="M3.17,55.5a22.3,22.3,0,0,1-1.24-8c.36-3.92,4.78-4.46,5.42-4.23,0,0,.73,6.68,1.05,12.19h6.3a27.13,27.13,0,0,0,1-6.8c.12-6.92-12.83-8.8-14.19-1.27-.37,2,.18,5.14,1.22,8.07Z" transform="translate(-1.1 -1.16)"/><path class="cls-8" d="M3.17,55.5H8.55S7.48,43.74,7.4,42.84C6.2,42.91-1.49,43.82,3.17,55.5Z" transform="translate(-1.1 -1.16)"/><path class="cls-9" d="M16.21,53.21s-2.64-12.36-2.35-13.43S17.93,52.55,17,54C16.59,54.57,16.21,53.21,16.21,53.21Z" transform="translate(-1.1 -1.16)"/></svg>