<svg xmlns="http://www.w3.org/2000/svg" width="72.615" height="112.663" viewBox="0 0 72.615 112.663">
  <path id="help" d="M68.627,9.319Q57.923,1.6,41.734,1.6q-12.312,0-20.762,5.434Q7.575,15.543,6.72,35.922h20.7a21.248,21.248,0,0,1,3.462-11.443q3.462-5.5,11.756-5.5,8.433,0,11.6,4.464a16.709,16.709,0,0,1,3.181,9.9c0,3.153-1.577,6.04-3.486,8.658A18,18,0,0,1,49.8,46.219s-11.224,7.2-16.15,12.981c-2.856,3.349-3.11,8.376-3.368,15.575-.012.513.18,1.577,1.972,1.577H48.346A1.764,1.764,0,0,0,50.3,74.637a18.644,18.644,0,0,1,.884-5.477c.9-2.86,3.368-5.352,6.127-7.5l5.7-3.924c5.145-4.014,9.245-7.3,11.06-9.878a26.188,26.188,0,0,0,5.27-15.649Q79.323,17.042,68.623,9.319ZM41.406,88.756a12.437,12.437,0,0,0-13.239,12.456c-.219,7.723,5.371,12.84,12.507,13.043,7.441.219,13.169-4.55,13.4-12.288.211-7.738-5.219-13-12.668-13.215Z" transform="translate(-6.72 -1.6)" fill="#928f8f"/>
</svg>
