<svg xmlns="http://www.w3.org/2000/svg" width="72.857" height="72.857" viewBox="0 0 72.857 72.857">
  <path id="help-with-circle" d="M37.069.64A36.429,36.429,0,1,0,73.5,37.064,36.429,36.429,0,0,0,37.069.64Zm-.574,57.674H36.3a5.085,5.085,0,0,1,.121-10.17l.175.007a5.082,5.082,0,1,1-.1,10.163ZM48.984,33.532a23.162,23.162,0,0,1-4.167,3.731l-2.132,1.468a5.8,5.8,0,0,0-2.137,2.611,5.32,5.32,0,0,0-.33,2.187v.342H32.079l.024-.69c.1-2.822.171-4.492,1.342-5.87a34.73,34.73,0,0,1,6.071-4.883,6.272,6.272,0,0,0,1.437-1.468,5.179,5.179,0,0,0,1.229-3.01,5.878,5.878,0,0,0-1.112-3.477c-.714-1.01-2.068-1.511-4.027-1.511-1.942,0-3.275.614-4.067,1.883a7.488,7.488,0,0,0-1.233,4.048v.349H23.351l.014-.365c.216-5.135,2.054-8.834,5.445-10.993a14.4,14.4,0,0,1,7.9-2.063A17.043,17.043,0,0,1,46.885,18.75c2.737,1.968,4.122,4.921,4.122,8.77a10.076,10.076,0,0,1-2.025,6.015Z" transform="translate(-0.64 -0.64)" fill="#62bccc"/>
</svg>
