<svg id="Homepage_Saved" data-name="Homepage Saved" xmlns="http://www.w3.org/2000/svg" viewBox="0 0 77.7 74.44"><defs><style>.cls-1{fill:#11697d;}.cls-2{fill:#464fa1;}.cls-3{fill:#65c9ee;}.cls-4{fill:#fff;}.cls-5{fill:#f0efef;}.cls-6{fill:#f4cd87;}.cls-7{fill:#63bc46;}.cls-8{fill:#f5c258;}.cls-9{fill:#dba23c;}.cls-10{fill:#c39038;}.cls-11{fill:#b27f35;}.cls-12{fill:#dddd1f;}.cls-13{fill:#148cb3;}.cls-14{fill:#205c9b;}.cls-15{fill:#cfb17c;}.cls-16{fill:#b6996b;}.cls-17{fill:#ad9368;}.cls-18{fill:#d6bd96;}.cls-19{fill:#99805b;}.cls-20{fill:#adc8de;}.cls-21{fill:#94afc4;}.cls-22{fill:#c4ae98;}.cls-23{fill:#8dd5e8;}</style></defs><polygon class="cls-1" points="58.22 74.44 3.71 74.44 15.67 67.99 70.18 67.99 58.22 74.44"/><rect class="cls-2" x="15.47" y="8.66" width="41.79" height="63.4" rx="3.34"/><rect class="cls-3" x="13.69" y="8.66" width="41.79" height="63.4" rx="3.34"/><rect class="cls-4" x="15.7" y="10.69" width="37.77" height="53.34" rx="3.34"/><rect class="cls-5" x="18.15" y="47.83" width="33.48" height="2.59"/><rect class="cls-5" x="18.15" y="52.38" width="33.48" height="2.59"/><rect class="cls-5" x="18.15" y="56.81" width="33.48" height="2.59"/><circle class="cls-6" cx="11.42" cy="57.41" r="11.42"/><polygon class="cls-2" points="53.47 32.34 53.47 46.57 15.7 38.93 15.7 34.57 51.66 29.78 53.47 32.34"/><circle class="cls-2" cx="35.48" cy="67.99" r="2.85"/><circle class="cls-4" cx="34.7" cy="67.99" r="2.85"/><g id="Save_Icon" data-name="Save Icon"><rect class="cls-3" x="6.12" y="51.81" width="11.18" height="11.18" rx="0.85"/><rect class="cls-2" x="5.58" y="51.81" width="11.18" height="11.18" rx="0.85"/><rect class="cls-4" x="7.88" y="52.54" width="6.58" height="2.72" rx="0.53"/><rect class="cls-2" x="12.75" y="52.9" width="1.04" height="2.07"/><rect class="cls-4" x="8.8" y="58.77" width="5.26" height="3.56"/><rect class="cls-2" x="9.07" y="59.31" width="4.68" height="0.39"/><rect class="cls-2" x="9.07" y="60.35" width="4.68" height="0.39"/><rect class="cls-2" x="9.09" y="61.39" width="4.68" height="0.39"/><circle class="cls-4" cx="16.76" cy="52.13" r="2.53"/><path id="checkmark" class="cls-7" d="M17.68,51.38a2.15,2.15,0,1,0,2.15,2.15A2.15,2.15,0,0,0,17.68,51.38Zm1.2,1.54-1.57,1.57a.1.1,0,0,1-.14,0l0,0h0l-.86-.87a.1.1,0,0,1,0-.14l.21-.22a.11.11,0,0,1,.15,0l.61.62,1.28-1.29a.1.1,0,0,1,.14,0l.22.22a.1.1,0,0,1,0,.14Z" transform="translate(-0.92 -1.4)"/><rect class="cls-4" x="16.7" y="53.26" width="2.44" height="0.52" transform="translate(-33.51 26.94) rotate(-45)"/><rect class="cls-4" x="16.21" y="53.48" width="1.17" height="0.52" transform="translate(42.01 2.46) rotate(45)"/></g><path id="home-2" class="cls-8" d="M18.46,18.49,32.24,1.4,53.61,17.22v8.62L32.24,8.17,18.46,24.05Zm13.78-6.36,15,12.67V43.91L36.67,41.28V30L28.27,29V39.18l-6.85-1.71V23.68Z" transform="translate(-0.92 -1.4)"/><polygon class="cls-9" points="31.32 0 34.34 0 58.41 16.11 52.69 15.81 31.32 0"/><polygon class="cls-10" points="58.41 16.11 58.41 24.44 52.69 24.44 52.69 15.81 58.41 16.11"/><polygon class="cls-10" points="17.54 22.64 31.32 6.76 32.89 8.05 19.3 22.64 17.54 22.64"/><polygon class="cls-10" points="31.32 10.73 34.16 10.73 49.95 23.4 46.32 23.39 31.32 10.73"/><polygon class="cls-11" points="46.32 42.51 46.32 23.39 49.95 23.4 49.95 42.51 46.32 42.51"/><polygon class="cls-11" points="27.35 37.78 29.5 37.14 29.5 27.88 27.35 27.64 27.35 37.78"/><path class="cls-3" d="M32.24,12.13s-1.34,3.79,0,5.09,3.29.13,3.79.8-3.33,6.53-1.46,7.07.67-4,2.29-4,2.66,1.08,1.91,2.95.67,5,1.83,4.74,4.95,0,4.95,1.2,1.68,2.58,1.68,2.58V24.8Z" transform="translate(-0.92 -1.4)"/><path class="cls-3" d="M53.61,20.42c0-.06-1.37-1.72-1.48-.34s.56,3-1.26,2.5,1.54-4.27-.24-5.66-2.32.14-3.82-.81,0-1.68-1.55-3-5.27,2.49-5.43-.39,1.6-5.1-.61-4.93-3.6-2.57-3.41,0-1.93,2.84-2,.07.28-5.22-1.56-6.44L53.61,17.22Z" transform="translate(-0.92 -1.4)"/><ellipse class="cls-12" cx="65.17" cy="72.35" rx="10.25" ry="0.85"/><path class="cls-13" d="M63.34,45.4c1-6.06,12.65-5.55,12.6,1.24,0,4.41-7.83,27.81-11.11,27.18S62.29,51.45,63.34,45.4Z" transform="translate(-0.92 -1.4)"/><path class="cls-14" d="M70.46,42.13s-6.83,31.55-5.32,31.48S74.68,54.2,75.52,46.45C75.63,43,71.15,42,70.46,42.13Z" transform="translate(-0.92 -1.4)"/><path class="cls-13" d="M64,47l-2,1.33s-4.49-1-4.11-1.62S64,47,64,47Z" transform="translate(-0.92 -1.4)"/><circle class="cls-13" cx="71.43" cy="32.27" r="6.27"/><path class="cls-15" d="M66.66,70.58C63.9,71.66,54.93,45.93,54.45,39.36L57.7,38C62.21,46.66,68.75,69,66.66,70.58Z" transform="translate(-0.92 -1.4)"/><path class="cls-16" d="M54.08,19.88c-4,1.6-7.38,11-.69,15.36l2.15-.45C59.64,27.66,52.35,27.93,54.08,19.88Z" transform="translate(-0.92 -1.4)"/><path class="cls-3" d="M52,27.65c-.08,1.1,1.46-.66,1.43-1.23s1.2-.68,1.2-.68a8.52,8.52,0,0,1-.53-5.86s-3.36,1.31-4.33,6.59c-.14,1.31,1.65-.34,1.65-.34S52.15,25.41,52,27.65Z" transform="translate(-0.92 -1.4)"/><path class="cls-17" d="M66.72,70.5S57.07,49.28,55.9,38.75c0,0-.79.38-1.45.61C54.9,45,63.62,72.69,66.72,70.5Z" transform="translate(-0.92 -1.4)"/><path class="cls-18" d="M63.69,55.28s-2.17-7.48-2.44-7.76C61.25,47.52,62,54,63.69,55.28Z" transform="translate(-0.92 -1.4)"/><path class="cls-19" d="M55.14,34.88s-1.9-2.82-1.91-4.19a8,8,0,0,0,.1,2.29s-1.66-2.86-1.37-4a8,8,0,0,0,.09,3.22s-1.64-2.83-1.56-4.69c0,0-.93,1.45-.77,2.23a8.14,8.14,0,0,0,3.67,5.55Z" transform="translate(-0.92 -1.4)"/><path class="cls-20" d="M58.82,40.53l-3,1-1,.35-1.42-7.06s1-1.6,2.41-.92Z" transform="translate(-0.92 -1.4)"/><path class="cls-21" d="M55.43,40.06l2.12-.64-2.26.11L55,38.31l1.65-.5-1.78-.18-.26-1.27.91-.38-1.09-.16-.21-.74s.12-.91.85-1a2.43,2.43,0,0,0-1.68.8l1.42,7.06L58,40.8l-2.32.45Z" transform="translate(-0.92 -1.4)"/><path class="cls-22" d="M56.59,31a4.87,4.87,0,0,0-.69-2.39S56.15,31.32,56.59,31Z" transform="translate(-0.92 -1.4)"/><path class="cls-13" d="M74.21,49.37S58.64,54.43,58,52.59s18.12-8.66,18-6.28A3.28,3.28,0,0,1,74.21,49.37Z" transform="translate(-0.92 -1.4)"/><path class="cls-3" d="M74.54,47S61.31,51.26,60.1,51.05s14.56-5.51,15.2-5S74.54,47,74.54,47Z" transform="translate(-0.92 -1.4)"/><path class="cls-14" d="M68.3,35.38l5.59,1.74C71.32,37.49,69.31,37.86,68.3,35.38Z" transform="translate(-0.92 -1.4)"/><path class="cls-23" d="M53.77,20.1s-2.08,2.52-2.26,2.39C51.11,22.21,53.63,20,53.77,20.1Z" transform="translate(-0.92 -1.4)"/></svg>