<svg xmlns="http://www.w3.org/2000/svg" viewBox="0 0 512 512" width="512" height="512">
	<style>
		tspan { white-space:pre }
		.shp0 { fill: #dfdfdf } 
	</style>
	<path id="Layer" fill-rule="evenodd" class="shp0" d="M504 256C504 393 392.96 504 256 504C119.04 504 8 393 8 256C8 119.08 119.04 8 256 8C392.96 8 504 119.08 504 256ZM456 256C456 145.47 366.49 56 256 56C145.47 56 56 145.5 56 256C56 366.57 145.47 456 256 456C366.57 456 456 366.53 456 256Z" />
	<path id="Layer" class="shp0" d="M316.15 370.56L312.08 387.18C299.89 391.99 290.14 395.66 282.89 398.18C275.62 400.7 267.18 401.96 257.57 401.96C242.8 401.96 231.32 398.34 223.12 391.16C214.93 383.94 210.84 374.8 210.84 363.71C210.84 359.42 211.13 355 211.75 350.51C212.37 346 213.37 340.93 214.72 335.26L229.97 281.3C231.32 276.14 232.47 271.24 233.4 266.61C234.33 262.01 234.79 257.78 234.79 253.97C234.79 247.08 233.36 242.26 230.52 239.55C227.68 236.85 222.26 235.48 214.21 235.48C210.27 235.48 206.22 236.11 202.09 237.33C197.95 238.55 194.4 239.74 191.43 240.84L195.5 224.2C205.49 220.14 215.03 216.66 224.17 213.77C233.3 210.87 241.92 209.42 250.08 209.42C264.75 209.42 276.07 212.96 284.01 220.05C291.96 227.15 295.93 236.34 295.93 247.67C295.93 250.02 295.67 254.15 295.11 260.05C294.56 265.97 293.54 271.39 292.05 276.33L276.88 330.06C275.63 334.38 274.51 339.31 273.54 344.87C272.54 350.38 272.06 354.6 272.06 357.42C272.06 364.56 273.65 369.43 276.84 372.02C280.05 374.61 285.58 375.9 293.45 375.9C297.14 375.9 301.33 375.25 306 373.96C310.65 372.67 314.05 371.54 316.15 370.56ZM320 144.95C320 154.31 316.47 162.3 309.38 168.88C302.31 175.48 293.78 178.78 283.81 178.78C273.81 178.78 265.27 175.48 258.11 168.88C250.97 162.3 247.4 154.31 247.4 144.95C247.4 135.6 250.97 127.59 258.11 120.93C265.25 114.29 273.81 110.96 283.81 110.96C293.78 110.96 302.31 114.29 309.38 120.93C316.48 127.59 320 135.6 320 144.95Z" />
</svg>