<svg xmlns="http://www.w3.org/2000/svg" width="119.2" height="92.424" viewBox="0 0 119.2 92.424">
  <path id="link" d="M70.965,115.122l-6.584,3.957a12.172,12.172,0,0,1-16.6-4.055,11.845,11.845,0,0,1,3.912-16.289l.077-.046L75.918,84.157c5-3.017,14.02-7.049,18.2-.221a6.658,6.658,0,1,0,11.356-6.954h0c-7.1-11.608-21.413-13.275-36.431-4.227L44.892,87.294A25.134,25.134,0,0,0,36.3,121.781l.12.2a25.5,25.5,0,0,0,34.825,8.506l6.584-3.957a6.66,6.66,0,0,0-6.883-11.4ZM148.2,54.585c-7.648-12.472-21.623-16.461-33.214-9.472l-8.176,4.915a6.654,6.654,0,0,0,6.828,11.422l.037-.023,8.184-4.915c6-3.625,11.852-.086,15,5.024A11.833,11.833,0,0,1,132.934,77.8l-.066.043-25.8,15.529c-11.781,7.086-15.159,1.6-16.593-.754a6.654,6.654,0,0,0-11.35,6.948,21.024,21.024,0,0,0,12.959,10.011,29.347,29.347,0,0,0,21.866-4.8l25.772-15.506a25.142,25.142,0,0,0,8.58-34.507l-.109-.184Z" transform="translate(-32.705 -41.691)" fill="#452092"/>
</svg>
