<svg id="Link_Email" data-name="Link Email" xmlns="http://www.w3.org/2000/svg" viewBox="0 0 87.67 56.36"><defs><style>.cls-1{fill:#a9d8e5;}.cls-2{fill:#6aadbb;}.cls-3{fill:#464fa1;}.cls-4{fill:#65c9ee;}.cls-5{fill:#fff;}.cls-6{fill:#f0efef;}.cls-7{fill:#125b2f;}.cls-8{fill:#14ac55;}.cls-9{fill:#128442;}.cls-10{fill:#1786c8;}.cls-11{fill:#b2d7f2;}.cls-12{fill:#2f2f80;}.cls-13{fill:#24245b;}.cls-14{fill:#1b7fa8;}.cls-15{fill:#f5c258;}.cls-16{fill:#459fcc;}.cls-17{fill:#ad1f27;}.cls-18{fill:#ec2629;}.cls-19{fill:#86a1b2;}</style></defs><polygon class="cls-1" points="87.67 50.38 39.21 50.71 23.44 56.36 77.48 56.36 87.67 50.38"/><path class="cls-2" d="M84.4,51.64H52.25a2.87,2.87,0,0,0-1.11.43l-5,3c-.39.24-.52.43-.3.43H78a2.85,2.85,0,0,0,1.12-.43l5-3C84.49,51.83,84.63,51.64,84.4,51.64Z" transform="translate(-1.15)"/><rect class="cls-3" x="52.57" y="13.68" width="27.06" height="41.06" rx="3.34"/><rect class="cls-4" x="51.42" y="13.68" width="27.06" height="41.06" rx="3.34"/><rect class="cls-5" x="52.72" y="14.99" width="24.46" height="34.54" rx="3.34"/><circle class="cls-3" cx="65.53" cy="52.1" r="1.85"/><circle class="cls-5" cx="65.03" cy="52.1" r="1.85"/><rect class="cls-6" x="54.71" y="27.57" width="19.86" height="1.27" rx="0.11"/><rect class="cls-6" x="54.71" y="30.08" width="19.86" height="18.1" rx="0.83"/><polygon class="cls-7" points="59.17 49.53 62.33 42.38 65.45 42.38 61.38 49.53 59.17 49.53"/><polygon class="cls-8" points="58.92 49.53 62.08 42.38 65.2 42.38 61.13 49.53 58.92 49.53"/><path class="cls-9" d="M62,45s2.6.48,1.78,1.9l2-3.43-2.57.46Z" transform="translate(-1.15)"/><path class="cls-10" d="M56.66,38.43S61.92,45,62,45s10.93-2.87,10.93-2.87,5-5.53.91-8-9.9-5.58-9.9-5.58S57,26.5,56.66,38.43Z" transform="translate(-1.15)"/><path class="cls-11" d="M62,45S70.08,32.74,66,29.69s-9-2-9.38,8.74Z" transform="translate(-1.15)"/><path class="cls-12" d="M61.92,44.1c3-5.49,7.13-12.51,2.77-14.77-5.7-3.43-8.94,7-8.94,7S59.71,41.27,61.92,44.1Z" transform="translate(-1.15)"/><path class="cls-13" d="M66.53,33.32s-.33-1.33-2.9-1.58a6,6,0,0,0-5.42,3A12.83,12.83,0,0,0,57.43,37s5.28,5.63,5.3,5.61C63.75,41.08,66.57,35.19,66.53,33.32Z" transform="translate(-1.15)"/><path class="cls-14" d="M68.19,31.61s6.08,2.9,6.47,4.49c.46,1.84-1.86,5.58-2.28,5.45l-3.49.83S76.34,36.89,68.19,31.61Z" transform="translate(-1.15)"/><path class="cls-15" d="M51,23.66,64.66,33.87l-1.54,4.41s-10.43-.08-15.56-1.57C44.59,33.54,50.93,23.66,51,23.66Z" transform="translate(-1.15)"/><ellipse class="cls-16" cx="69.76" cy="35.09" rx="1.4" ry="3.03" transform="translate(-9.35 39.58) rotate(-30)"/><path class="cls-17" d="M73.39,34.86l.94-2-3.49-2.71S67.25,38.6,67.09,39s-.39,1.26.44,1.37c1.17.16,1.62-1.93.75-2l2.23-4.92Z" transform="translate(-1.15)"/><path class="cls-18" d="M73.31,34.79l.94-2-3.49-2.71L67,38.92c-.16.4-.39,1.26.45,1.37,1.16.16,1.62-1.93.75-1.95l2.22-4.92Z" transform="translate(-1.15)"/><ellipse class="cls-19" cx="67.85" cy="39.25" rx="0.37" ry="0.28" transform="translate(3.3 85.35) rotate(-66.07)"/><ellipse class="cls-11" cx="67.79" cy="39.22" rx="0.37" ry="0.28" transform="translate(3.29 85.27) rotate(-66.07)"/><path class="cls-5" d="M51,23.66l7.38,10.19,6-.25.36.27-6.54,1L50,25.26S50.87,23.73,51,23.66Z" transform="translate(-1.15)"/><rect class="cls-6" x="54.71" y="18.24" width="19.86" height="3.99" rx="0.83"/><rect class="cls-6" x="54.71" y="23.23" width="19.86" height="1.27" rx="0.11"/><rect class="cls-6" x="54.71" y="25.4" width="19.86" height="1.27" rx="0.11"/><path class="cls-15" d="M44.46,25.77l6-4.27S43.8,10,35.57,10L28.5,19.51S39.64,20.47,44.46,25.77Z" transform="translate(-1.15)"/><polygon class="cls-5" points="39.57 18.76 33.57 11.16 34.42 10.03 39.91 17.9 48.8 20.62 49.36 21.5 39.57 18.76"/><path class="cls-15" d="M43.16,32.87s-2.88,1.5-9.31,0v6.26s12.3-.44,13.08-1.5Z" transform="translate(-1.15)"/><path class="cls-5" d="M43.28,33a35.11,35.11,0,0,1-3.45,2.77l-6-2.25v-.66l5.91,2.52,3.4-2.52Z" transform="translate(-1.15)"/><path class="cls-15" d="M32.41,25.13l-2.55,8.4s-26.72.6-28.71-7.76L8.71.16S19,20.33,32.41,25.13Z" transform="translate(-1.15)"/><path class="cls-5" d="M16.78,22.83l15.63,2.3-.15.47-16.59-.68L6.83,6.35,8.69,0S14.53,19.24,16.78,22.83Z" transform="translate(-1.15)"/></svg>