<svg id="Logged_In" data-name="Logged In" xmlns="http://www.w3.org/2000/svg" viewBox="0 0 76.32 65.72"><defs><style>.cls-1{fill:#7d8c99;}.cls-2{fill:#596f7f;}.cls-3{fill:#464fa1;}.cls-4{fill:#65c9ee;}.cls-5{fill:#fff;}.cls-6{fill:#f0efef;}.cls-7,.cls-8{fill:none;stroke-miterlimit:10;stroke-width:2px;}.cls-7{stroke:#f89822;}.cls-8{stroke:#148cb3;}.cls-9{fill:#e18726;}.cls-10{fill:#205c9b;}.cls-11{fill:#f9d462;}.cls-12{fill:#ecb758;}.cls-13{fill:#f3e7c8;}</style></defs><polygon class="cls-1" points="67.55 65.72 0 65.72 8.77 60.09 76.32 60.09 67.55 65.72"/><polygon class="cls-2" points="65.73 65.12 42.84 65.12 45.61 61.56 71.5 61.56 65.73 65.12"/><rect class="cls-3" x="16.25" width="41.79" height="63.4" rx="3.34"/><rect class="cls-4" x="14.48" width="41.79" height="63.4" rx="3.34"/><rect class="cls-5" x="16.49" y="2.02" width="37.77" height="53.34" rx="3.34"/><rect class="cls-6" x="18.94" y="39.17" width="33.48" height="2.59"/><rect class="cls-6" x="18.94" y="43.72" width="33.48" height="2.59"/><rect class="cls-6" x="18.94" y="48.15" width="33.48" height="2.59"/><circle class="cls-3" cx="36.26" cy="59.32" r="2.85"/><circle class="cls-5" cx="35.49" cy="59.32" r="2.85"/><g id="Lock"><path class="cls-7" d="M43.54,13.82C43.54,9.5,41,6,37.89,6s-5.65,3.5-5.65,7.83,2.53,7.83,5.65,7.83" transform="translate(-1.48 -1.09)"/><path class="cls-8" d="M42.6,13.82C42.6,9.5,40.07,6,37,6s-5.64,3.5-5.64,7.83,2.52,7.83,5.64,7.83" transform="translate(-1.48 -1.09)"/><rect class="cls-9" x="26.1" y="15.4" width="20.53" height="21.82" rx="2.62"/><rect class="cls-10" x="25.16" y="15.4" width="20.53" height="21.82" rx="2.62"/><path class="cls-4" d="M34.15,25.28a3.69,3.69,0,1,0,3.69-3.69A3.69,3.69,0,0,0,34.15,25.28Z" transform="translate(-1.48 -1.09)"/><polygon class="cls-4" points="31.74 32.88 40.99 32.88 37.73 25.31 34.79 25.31 31.74 32.88"/><path class="cls-5" d="M33.21,25.28a3.69,3.69,0,1,0,3.69-3.69A3.69,3.69,0,0,0,33.21,25.28Z" transform="translate(-1.48 -1.09)"/><polygon class="cls-5" points="30.8 32.88 40.05 32.88 36.79 25.31 33.85 25.31 30.8 32.88"/></g><rect class="cls-11" x="47.1" y="48.75" width="15.84" height="17.71" transform="translate(-4.17 111.41) rotate(-89.88)"/><polygon class="cls-12" points="67.06 61.84 62.39 64.45 62.42 48.61 67.12 48.62 67.06 61.84"/><polygon class="cls-13" points="52.69 48.59 55.94 48.6 55.92 55.64 55.51 54.91 55.12 55.64 54.71 54.9 54.3 55.64 53.92 54.92 53.55 55.64 53.16 54.9 52.67 55.63 52.69 48.59"/><rect class="cls-11" x="50.17" y="39.21" width="15.76" height="10.53" transform="translate(-1.38 -1.21) rotate(0.12)"/><ellipse class="cls-2" cx="12.17" cy="64.01" rx="2.47" ry="0.24"/><ellipse class="cls-2" cx="16.64" cy="64.06" rx="1.55" ry="0.23"/><rect class="cls-12" x="61.94" y="39.23" width="3.98" height="10.53" transform="translate(-1.38 -1.23) rotate(0.12)"/><polygon class="cls-13" points="54.01 38.12 56.17 38.12 56.16 42.81 55.88 42.32 55.62 42.8 55.35 42.31 55.08 42.8 54.82 42.33 54.58 42.8 54.32 42.31 53.99 42.8 54.01 38.12"/><path id="location-pin" class="cls-10" d="M13.07,43.68a6.71,6.71,0,0,0-6.54,6.87h0C6.7,57,13.64,65.15,13.64,65.15s6.49-8.54,6.32-15a6.7,6.7,0,0,0-6.88-6.52Zm.28,10.41a3.63,3.63,0,1,1,3.52-3.73h0a3.62,3.62,0,0,1-3.52,3.73Z" transform="translate(-1.48 -1.09)"/><circle class="cls-5" cx="11.77" cy="49.37" r="3.7"/><circle class="cls-5" cx="16.3" cy="54.15" r="3.7"/><path id="location-pin-2" data-name="location-pin" class="cls-11" d="M17.66,50.67a4.52,4.52,0,0,0-4.41,4.63h0c.11,4.32,4.79,9.84,4.79,9.84s4.38-5.76,4.27-10.08a4.53,4.53,0,0,0-4.65-4.4Zm.18,7a2.45,2.45,0,1,1,2.38-2.51h0a2.44,2.44,0,0,1-2.38,2.51Z" transform="translate(-1.48 -1.09)"/></svg>