<svg id="Login" xmlns="http://www.w3.org/2000/svg" viewBox="0 0 43.72 39.02"><defs><style>.cls-1{fill:#205c9b;}.cls-2{fill:#148cb3;}.cls-3,.cls-9{fill:#fff;}.cls-11,.cls-3{stroke:#148cb3;}.cls-10,.cls-11,.cls-3{stroke-miterlimit:10;}.cls-4{fill:#e18726;}.cls-5{fill:#f89822;}.cls-6{fill:#464fa1;}.cls-7{fill:#65c9ee;}.cls-8{fill:#e8e8e8;}.cls-10,.cls-11{fill:none;}.cls-10{stroke:#f89822;}</style></defs><path class="cls-1" d="M38,25.28S27.64,29.76,27,28.55,38.87,21.43,39,23.07A2.27,2.27,0,0,1,38,25.28Z" transform="translate(-0.81 -0.8)"/><circle class="cls-2" cx="34.77" cy="14.32" r="5.68"/><path class="cls-2" d="M33,27.44c-.09-5.57,10.34-7.06,11.43-1C45.14,30.36,42,39.83,39,39.82S33.08,33,33,27.44Z" transform="translate(-0.81 -0.8)"/><path class="cls-1" d="M38.61,23.34s.34,15.33,1.67,15,4.12-5,3.56-12C43.35,23.2,39.21,23.11,38.61,23.34Z" transform="translate(-0.81 -0.8)"/><path class="cls-1" d="M38,16.78,33,18.9S37.1,22,38,16.78Z" transform="translate(-0.81 -0.8)"/><path class="cls-3" d="M2.5,1.3h25a1.36,1.36,0,0,1,1.19,1.47l.22,14.62a1.37,1.37,0,0,1-1.19,1.53H26.58L27.91,24l-5.38-4.9H2.5a1.38,1.38,0,0,1-1.19-1.51V2.8A1.37,1.37,0,0,1,2.5,1.3Z" transform="translate(-0.81 -0.8)"/><path class="cls-4" d="M31.38,30.54l-3.08.19A.32.32,0,0,1,28,30.5l-1.66-6a.25.25,0,0,1,.23-.33l3.09-.2a.33.33,0,0,1,.33.24l1.65,6A.25.25,0,0,1,31.38,30.54Z" transform="translate(-0.81 -0.8)"/><path class="cls-5" d="M31.05,30.56l-3.09.2a.34.34,0,0,1-.33-.24l-1.65-6a.25.25,0,0,1,.23-.33L29.29,24a.32.32,0,0,1,.33.23l1.66,6A.25.25,0,0,1,31.05,30.56Z" transform="translate(-0.81 -0.8)"/><ellipse class="cls-6" cx="28.35" cy="25.9" rx="0.68" ry="0.84" transform="translate(-10.68 28.84) rotate(-48)"/><path class="cls-2" d="M42.53,28.79s-14.34,3.84-14.87,2.14,16.82-7,16.63-4.82A3,3,0,0,1,42.53,28.79Z" transform="translate(-0.81 -0.8)"/><path class="cls-7" d="M42.94,26.65s-12.18,3.23-13.26,3,13.44-4.3,14-3.83S42.94,26.65,42.94,26.65Z" transform="translate(-0.81 -0.8)"/><rect class="cls-8" x="3.6" y="1.59" width="12.09" height="15.23" rx="1.04"/><path id="Rectangle_3-2" data-name="Rectangle 3-2" class="cls-9" d="M5.56,11.61h9.79a.49.49,0,0,1,.46.51V13a.48.48,0,0,1-.46.5H5.56A.48.48,0,0,1,5.1,13v-.83A.48.48,0,0,1,5.56,11.61Z" transform="translate(-0.81 -0.8)"/><path id="Rectangle_6-2" data-name="Rectangle 6-2" class="cls-9" d="M5.56,9.12h9.79a.49.49,0,0,1,.46.51v.83a.48.48,0,0,1-.46.5H5.56a.48.48,0,0,1-.46-.5V9.63A.48.48,0,0,1,5.56,9.12Z" transform="translate(-0.81 -0.8)"/><rect class="cls-1" x="5.99" y="2.88" width="7.32" height="0.78"/><rect class="cls-2" x="7.36" y="13.54" width="4.58" height="1.29" rx="0.37"/><ellipse class="cls-10" cx="22.45" cy="6.74" rx="3.38" ry="2.44" transform="translate(8.08 25.07) rotate(-71.37)"/><ellipse class="cls-11" cx="22.06" cy="6.62" rx="3.38" ry="2.44" transform="translate(7.94 24.61) rotate(-71.37)"/><rect class="cls-4" x="16.51" y="6.5" width="8.87" height="9.42" rx="1.48" transform="translate(3.87 -6.9) rotate(18.63)"/><rect class="cls-1" x="16.13" y="6.37" width="8.87" height="9.42" rx="1.48" transform="translate(3.81 -6.78) rotate(18.63)"/><path class="cls-7" d="M19.73,9.83A1.55,1.55,0,0,0,19.8,11a1.6,1.6,0,0,0,2.95-.18,1.59,1.59,0,0,0-3-1Z" transform="translate(-0.81 -0.8)"/><polygon class="cls-7" points="17.33 12.47 21.12 13.74 20.83 10.2 19.63 9.79 17.33 12.47"/><path class="cls-9" d="M19.34,9.7a1.6,1.6,0,0,0,.07,1.2,1.6,1.6,0,0,0,2.95-.18,1.59,1.59,0,0,0-3-1Z" transform="translate(-0.81 -0.8)"/><polygon class="cls-9" points="16.95 12.34 20.74 13.61 20.45 10.06 19.24 9.66 16.95 12.34"/></svg>