<svg xmlns="http://www.w3.org/2000/svg" viewBox="0 0 330 330" width="330" height="330">
	<style>
		tspan { white-space:pre }
		.shp0 { fill: #452092 } 
	</style>
	<path id="Layer" class="shp0" d="M247.55 162.45L165.94 81.11C164.77 79.95 163.04 79.62 161.5 80.23C159.97 80.87 158.98 82.35 158.98 84L158.98 128.85L29.27 128.85C27.02 128.85 25.19 130.67 25.19 132.92L25.19 198.16C25.19 200.41 27.02 202.24 29.27 202.24L158.98 202.24L158.98 246.91C158.98 248.56 159.98 250.04 161.5 250.68C162.01 250.89 162.54 250.99 163.06 250.99C164.12 250.99 165.17 250.57 165.95 249.8L247.56 168.22C248.32 167.46 248.75 166.42 248.75 165.34C248.75 164.25 248.32 163.22 247.55 162.45Z" />
	<g id="Layer">
		<path id="Layer" class="shp0" d="M175 330C166.71 330 160 323.28 160 315C160 306.72 166.71 300 175 300L290 300L290 30L175 30C166.71 30 160 23.28 160 15C160 6.72 166.71 0 175 0L305 0C313.28 0 320 6.72 320 15L320 315C320 323.28 313.28 330 305 330L175 330Z" />
	</g>
	<g id="Layer">
	</g>
	<g id="Layer">
	</g>
	<g id="Layer">
	</g>
	<g id="Layer">
	</g>
	<g id="Layer">
	</g>
	<g id="Layer">
	</g>
	<g id="Layer">
	</g>
	<g id="Layer">
	</g>
	<g id="Layer">
	</g>
	<g id="Layer">
	</g>
	<g id="Layer">
	</g>
	<g id="Layer">
	</g>
	<g id="Layer">
	</g>
	<g id="Layer">
	</g>
	<g id="Layer">
	</g>
</svg>