<svg id="Notifications_Saved" data-name="Notifications Saved" xmlns="http://www.w3.org/2000/svg" viewBox="0 0 70.78 82.79"><defs><style>.cls-1{fill:#f5c258;}.cls-2{fill:#666d8e;}.cls-3{fill:#f9d462;}.cls-4{fill:#464fa1;}.cls-5{fill:#f3e7c8;}.cls-6{fill:#65c9ee;}.cls-7{fill:#fff;}.cls-8{fill:#f0efef;}.cls-9{fill:#b1b9dd;}.cls-10{fill:none;stroke:#f5c258;stroke-width:0.75px;}.cls-10,.cls-12{stroke-miterlimit:10;}.cls-11{fill:#9ca4aa;}.cls-12{fill:#e46253;stroke:#fff;stroke-width:0.5px;}.cls-13{fill:#63bc46;}</style></defs><polygon class="cls-1" points="61.99 82.79 0 82.79 8.79 77.05 70.78 77.05 61.99 82.79"/><circle class="cls-2" cx="52.58" cy="18.2" r="18.2"/><rect class="cls-3" x="40.16" y="9.31" width="23.85" height="15.94"/><rect class="cls-1" x="57.99" y="9.31" width="6.03" height="15.94"/><rect class="cls-4" x="15.25" y="18.2" width="41.79" height="63.4" rx="3.34"/><polygon class="cls-5" points="48.19 9.31 51.47 9.31 51.47 16.4 51.04 15.66 50.66 16.4 50.24 15.65 49.83 16.4 49.44 15.67 49.08 16.4 48.68 15.65 48.19 16.4 48.19 9.31"/><rect class="cls-6" x="13.48" y="18.2" width="41.79" height="63.4" rx="3.34"/><rect class="cls-7" x="15.48" y="20.23" width="37.77" height="53.34" rx="3.34"/><rect class="cls-8" x="17.94" y="39.07" width="33.48" height="2.59"/><rect class="cls-8" x="17.94" y="43.84" width="33.48" height="2.59"/><rect class="cls-8" x="17.94" y="48.43" width="33.48" height="2.59"/><rect class="cls-8" x="17.94" y="52.79" width="33.48" height="2.59"/><rect class="cls-8" x="17.94" y="57.37" width="33.48" height="2.59"/><rect class="cls-8" x="17.94" y="61.92" width="33.48" height="2.59"/><rect class="cls-8" x="16.55" y="24.91" width="35.86" height="12.17" rx="3.28"/><circle class="cls-4" cx="35.26" cy="77.53" r="2.85"/><circle class="cls-7" cx="34.48" cy="77.53" r="2.85"/><circle class="cls-4" cx="13.48" cy="34.2" r="11.86"/><circle class="cls-9" cx="54.4" cy="59.59" r="10.65"/><g id="Bell"><ellipse class="cls-10" cx="13.48" cy="27.37" rx="1.77" ry="2.1"/><circle class="cls-11" cx="13.48" cy="41.33" r="1.79"/><path class="cls-3" d="M8.27,42.39H20.78V40.23l-1.56-1.34s1.67-10-4.69-10S10,38.89,10,38.89l-1.68,1Z" transform="translate(-1.05 -1.06)"/><path class="cls-1" d="M14.53,28.84V42.39h6.25V40.23l-1.56-1.34S21.06,28.84,14.53,28.84Z" transform="translate(-1.05 -1.06)"/></g><circle class="cls-12" cx="18.57" cy="28.48" r="2.35"/><path class="cls-7" d="M19.56,28.61h0l-.46.24L19,28.58l.56-.3h.3v2.6h-.34Z" transform="translate(-1.05 -1.06)"/><circle class="cls-12" cx="60.2" cy="7.84" r="2.35"/><path class="cls-7" d="M60.43,10.24V10l.27-.26c.67-.64,1-1,1-1.36a.46.46,0,0,0-.52-.51.89.89,0,0,0-.55.22l-.11-.25a1.16,1.16,0,0,1,.74-.26.72.72,0,0,1,.79.75c0,.48-.35.87-.89,1.4l-.21.19h1.17v.29Z" transform="translate(-1.05 -1.06)"/><rect class="cls-1" x="48.74" y="54.37" width="11.18" height="11.18" rx="0.85"/><rect class="cls-4" x="48.19" y="54.37" width="11.18" height="11.18" rx="0.85"/><rect class="cls-7" x="50.49" y="55.09" width="6.58" height="2.72" rx="0.53"/><rect class="cls-4" x="55.36" y="55.46" width="1.04" height="2.07"/><rect class="cls-7" x="51.42" y="61.32" width="5.26" height="3.56"/><rect class="cls-4" x="51.69" y="61.86" width="4.68" height="0.39"/><rect class="cls-4" x="51.69" y="62.91" width="4.68" height="0.39"/><rect class="cls-4" x="51.7" y="63.95" width="4.68" height="0.39"/><circle class="cls-7" cx="59.38" cy="54.69" r="2.53"/><path id="checkmark" class="cls-13" d="M60.42,53.59a2.15,2.15,0,1,0,2.16,2.15A2.15,2.15,0,0,0,60.42,53.59Zm1.21,1.54L60.06,56.7a.11.11,0,0,1-.15,0l0,0h0L59,55.8a.1.1,0,0,1,0-.14l.21-.22a.1.1,0,0,1,.14,0l.61.62,1.29-1.29a.1.1,0,0,1,.14,0l.22.22a.12.12,0,0,1,0,.14Z" transform="translate(-1.05 -1.06)"/><rect class="cls-7" x="59.45" y="55.47" width="2.44" height="0.52" transform="translate(-22.69 58.16) rotate(-45)"/><rect class="cls-7" x="58.95" y="55.69" width="1.17" height="0.52" transform="translate(55.96 -26.77) rotate(45)"/></svg>