<svg id="Oops_More_Info" data-name="Oops More Info" xmlns="http://www.w3.org/2000/svg" viewBox="0 0 74.46 65"><defs><style>.cls-1{fill:#4f2b59;}.cls-2{fill:#6a3875;}.cls-3{fill:#ca95c3;}.cls-4{fill:#fff;}.cls-5{fill:#dfc0dc;}.cls-6{fill:none;stroke:#dfc0dc;stroke-miterlimit:10;}.cls-7{fill:#65c9ee;}.cls-8{fill:#f0efef;}.cls-9{fill:#dddd1f;}.cls-10{fill:#ed2024;}.cls-11{fill:#148cb3;}.cls-12{fill:#205c9b;}.cls-13{fill:#f3eb30;}.cls-14{fill:#e6e8cd;}.cls-15{fill:#d0d2bb;}.cls-16{fill:#282826;}.cls-17{fill:#9d9d99;}.cls-18{fill:#7b7a7a;}.cls-19{fill:#de97b8;}.cls-20{fill:#c487a6;}.cls-21{fill:#eee93a;}</style></defs><rect class="cls-1" x="30.4" y="8.03" width="44.06" height="56.37" rx="3.09"/><rect class="cls-2" x="28.23" y="8.03" width="44.06" height="56.37" rx="3.09"/><rect class="cls-3" x="31.89" y="11.36" width="38.24" height="49.71"/><path class="cls-4" d="M32,11.53H68.8a0,0,0,0,1,0,0V55.88a3.44,3.44,0,0,1-3.44,3.44H32a0,0,0,0,1,0,0V11.53A0,0,0,0,1,32,11.53Z"/><path class="cls-5" d="M29.16,57.43H64s.17,3.07,2.91,3.24H32.15S29.66,60.75,29.16,57.43Z" transform="translate(-1.42 -1.34)"/><rect class="cls-6" x="51.37" y="17.76" width="9.04" height="9.04"/><rect class="cls-6" x="51.37" y="30.91" width="9.04" height="9.04"/><rect class="cls-6" x="51.37" y="44.05" width="9.04" height="9.04"/><path class="cls-7" d="M56,25.49l-1.47.4a6.37,6.37,0,0,1,2.1,1.48l.67.05s1.88-5.74,3.8-6.2a5.31,5.31,0,0,0-2.34-.85l-1.82,6.07Z" transform="translate(-1.42 -1.34)"/><path class="cls-7" d="M55.76,51.67l-1.47.41a6.26,6.26,0,0,1,2.09,1.48l.68,0s1.88-5.73,3.8-6.19a5.31,5.31,0,0,0-2.34-.85L56.7,52.63Z" transform="translate(-1.42 -1.34)"/><g id="Rectangle_Writing" data-name="Rectangle Writing"><rect class="cls-8" x="34.84" y="32.2" width="16.13" height="0.86" transform="translate(84.39 63.91) rotate(-180)"/><rect class="cls-8" x="34.84" y="33.75" width="14.05" height="0.86" transform="translate(82.31 67.03) rotate(-180)"/><rect class="cls-8" x="34.84" y="35.31" width="16.13" height="0.86" transform="translate(84.39 70.13) rotate(-180)"/><rect class="cls-8" x="34.84" y="38.76" width="16.13" height="0.86" transform="translate(84.39 77.03) rotate(-180)"/><rect class="cls-8" x="34.84" y="37.03" width="8.58" height="0.86" transform="translate(76.83 73.58) rotate(-180)"/><rect class="cls-8" x="34.84" y="40.48" width="16.13" height="0.86" transform="translate(84.39 80.48) rotate(-180)"/><rect class="cls-8" x="33.42" y="17.76" width="16.13" height="0.86"/><rect class="cls-8" x="33.42" y="19.32" width="16.13" height="0.86"/><rect class="cls-8" x="33.42" y="20.87" width="16.13" height="0.86"/><rect class="cls-8" x="33.42" y="24.32" width="16.13" height="0.86"/><rect class="cls-8" x="40.97" y="22.6" width="8.58" height="0.86"/><rect class="cls-8" x="33.42" y="26.05" width="16.13" height="0.86"/><rect class="cls-8" x="36.3" y="44.17" width="13.25" height="0.86"/><rect class="cls-8" x="33.42" y="45.72" width="16.13" height="0.86"/><rect class="cls-8" x="33.42" y="47.28" width="16.13" height="0.86"/><rect class="cls-8" x="33.42" y="50.73" width="12.69" height="0.86"/><rect class="cls-8" x="40.97" y="49" width="8.58" height="0.86"/><rect class="cls-8" x="33.42" y="52.45" width="16.13" height="0.86"/></g><ellipse class="cls-9" cx="18.99" cy="64.15" rx="10.25" ry="0.85"/><path class="cls-10" d="M64.24,29.85c-5.56-.78-11.7.36-16,4.06a9.39,9.39,0,0,0-2.64,3.15,2.53,2.53,0,0,0-.11,1.81,3.24,3.24,0,0,0,1.18,1.49,11.56,11.56,0,0,0,3.81,1.71,25.13,25.13,0,0,0,4.22.8,22.8,22.8,0,0,0,4.29,0,21.25,21.25,0,0,0,4.21-.77A11.66,11.66,0,0,0,67,40.24a5.94,5.94,0,0,0,2.27-3.36,4.64,4.64,0,0,0,0-2,3.89,3.89,0,0,0-1-1.75,7.49,7.49,0,0,0-3.69-1.88A28.65,28.65,0,0,0,56,30.86s0,0,0,0a0,0,0,0,1,0,0,23,23,0,0,1,8.75-.08,7.72,7.72,0,0,1,4,2,4.53,4.53,0,0,1,1.14,2,5.25,5.25,0,0,1,0,2.3,6.53,6.53,0,0,1-2.48,3.75,12.57,12.57,0,0,1-4,2,23.29,23.29,0,0,1-4.36.83,24.23,24.23,0,0,1-4.43.08,28.06,28.06,0,0,1-4.36-.78,12.62,12.62,0,0,1-4.12-1.82,4.27,4.27,0,0,1-1.49-1.89,3.41,3.41,0,0,1,.11-2.44,10.09,10.09,0,0,1,2.87-3.53,18.46,18.46,0,0,1,7.95-3.95,24.31,24.31,0,0,1,8.88-.38.51.51,0,0,1,.42.57.5.5,0,0,1-.57.42Z" transform="translate(-1.42 -1.34)"/><path id="help" class="cls-7" d="M26.34,12.14a3.26,3.26,0,0,0-2-.6,2.71,2.71,0,0,0-1.55.38A2.47,2.47,0,0,0,21.72,14l1.54,0a1.51,1.51,0,0,1,.27-.85.93.93,0,0,1,.87-.39,1,1,0,0,1,.86.34,1.24,1.24,0,0,1,.22.74,1.17,1.17,0,0,1-.26.64,1.3,1.3,0,0,1-.32.3,7.34,7.34,0,0,0-1.21,1A1.88,1.88,0,0,0,23.42,17s0,.12.15.12l1.19,0a.13.13,0,0,0,.15-.11v0a1.4,1.4,0,0,1,.07-.4,1.24,1.24,0,0,1,.46-.55l.43-.29A3.81,3.81,0,0,0,26.7,15a1.92,1.92,0,0,0,.41-1.15A2,2,0,0,0,26.34,12.14ZM24.23,18a.95.95,0,0,0-.08,1.89h0a.9.9,0,0,0,1-.8.28.28,0,0,0,0-.09.92.92,0,0,0-.85-1Z" transform="translate(-1.42 -1.34)"/><path class="cls-11" d="M23.16,37.13c-1.05-6.05-12.66-5.54-12.6,1.25,0,4.4,7.83,27.8,11.11,27.17S24.21,43.19,23.16,37.13Z" transform="translate(-1.42 -1.34)"/><path class="cls-12" d="M16,33.87s6.84,31.54,5.32,31.47S11.82,45.94,11,38.18C10.87,34.69,15.34,33.74,16,33.87Z" transform="translate(-1.42 -1.34)"/><path class="cls-11" d="M22.49,38.71l2,1.34s4.5-1,4.12-1.63S22.49,38.71,22.49,38.71Z" transform="translate(-1.42 -1.34)"/><g id="Pencil"><polygon class="cls-13" points="31.97 43.34 5.87 16.58 2.69 19.29 29.27 46.32 31.97 43.34"/><path class="cls-9" d="M6,19.06S14.69,31,32.28,45.91l-1.59,1.76-26.57-27L6,19.06" transform="translate(-1.42 -1.34)"/><path class="cls-14" d="M36.07,50.83s-1.88-5.34-2.67-6.15-5.51,1.24-2.71,3S36.07,50.83,36.07,50.83Z" transform="translate(-1.42 -1.34)"/><path class="cls-15" d="M30.85,45.11l3.5,3.75-.43.74C33.4,49.3,27.42,47,30.85,45.11Z" transform="translate(-1.42 -1.34)"/><path class="cls-16" d="M35.13,48.3s-2-.54-1.49,1.14l2.43,1.39Z" transform="translate(-1.42 -1.34)"/><polygon class="cls-17" points="33.17 47.1 33.62 47.15 34.25 48.89 33.17 47.1"/><path class="cls-17" d="M8.17,18.82s-3.23-.53-3.26,2.62L3.47,20a3.45,3.45,0,0,1,3.83-2.1Z" transform="translate(-1.42 -1.34)"/><path class="cls-17" d="M4.25,20.73" transform="translate(-1.42 -1.34)"/><path class="cls-18" d="M4.5,18.63s.49.85,1,1a3.12,3.12,0,0,0-.56,1.78L3.47,20A4.71,4.71,0,0,1,4.5,18.63Z" transform="translate(-1.42 -1.34)"/><path class="cls-19" d="M7.3,17.92,3.47,20S.24,17,1.9,16.25C3.16,15.71,3.77,14,7.3,17.92Z" transform="translate(-1.42 -1.34)"/><path class="cls-20" d="M4.62,19.39l-2.57-3.1s-.63.26-.53.71-.09.67,2.05,3Z" transform="translate(-1.42 -1.34)"/></g><circle class="cls-11" cx="12.72" cy="24.07" r="6.27"/><path class="cls-11" d="M12.29,41.11s15.57,5.06,16.26,3.21-18.13-8.66-18-6.27A3.26,3.26,0,0,0,12.29,41.11Z" transform="translate(-1.42 -1.34)"/><path class="cls-7" d="M12,38.72S25.19,43,26.4,42.78s-14.56-5.51-15.2-5S12,38.72,12,38.72Z" transform="translate(-1.42 -1.34)"/><path id="help-2" data-name="help" class="cls-10" d="M26.55,3A3.29,3.29,0,0,0,25,1.63a2.82,2.82,0,0,0-1.57-.27,2.49,2.49,0,0,0-1.84,1.53l1.4.62a1.57,1.57,0,0,1,.59-.66.94.94,0,0,1,1,0,1,1,0,0,1,.65.65,1.27,1.27,0,0,1-.09.77,1.06,1.06,0,0,1-.5.48,1.16,1.16,0,0,1-.4.16,7,7,0,0,0-1.49.39c-.3.14-.47.47-.7,1,0,0,0,.11.08.17l1.09.49a.14.14,0,0,0,.18,0h0a1.11,1.11,0,0,1,.22-.34,1.3,1.3,0,0,1,.65-.33l.5-.09a4.92,4.92,0,0,0,1.05-.33,1.91,1.91,0,0,0,.83-.9A2,2,0,0,0,26.55,3ZM22.3,7.52a.95.95,0,1,0-.83,1.7h0a.91.91,0,0,0,1.24-.34l0-.08a.92.92,0,0,0-.38-1.25l-.07,0Z" transform="translate(-1.42 -1.34)"/><path id="help-3" data-name="help" class="cls-2" d="M17,3.09a6.27,6.27,0,0,0-3.85.61,5.21,5.21,0,0,0-2.3,1.9,4.63,4.63,0,0,0-.1,4.49l2.61-1.22a2.83,2.83,0,0,1-.23-1.65A1.78,1.78,0,0,1,14.3,5.84,1.84,1.84,0,0,1,16,5.72a2.39,2.39,0,0,1,1,1.07,2.11,2.11,0,0,1,.06,1.29,2.58,2.58,0,0,1-.27.78,13,13,0,0,0-1.28,2.59A3.54,3.54,0,0,0,16,13.61c0,.07.11.19.34.08l2-.94a.25.25,0,0,0,.16-.31v0a2.47,2.47,0,0,1-.21-.75,2.36,2.36,0,0,1,.33-1.3l.49-.83A8.87,8.87,0,0,0,20,7.64a3.65,3.65,0,0,0-.25-2.28A3.7,3.7,0,0,0,17,3.09Zm1.23,11.63A1.78,1.78,0,0,0,19.64,18h0a1.72,1.72,0,0,0,1-2.19,1,1,0,0,0-.07-.15,1.74,1.74,0,0,0-2.24-1l-.13.06Z" transform="translate(-1.42 -1.34)"/><rect class="cls-9" x="39.13" y="5.32" width="23.78" height="8.78" rx="1.95"/><rect class="cls-21" x="39.13" y="5.32" width="22.87" height="8.78" rx="1.95"/><circle class="cls-12" cx="56.02" cy="9.71" r="1.94"/><circle class="cls-12" cx="46.73" cy="9.71" r="1.94"/><circle class="cls-3" cx="55.89" cy="9.97" r="1.64"/><circle class="cls-3" cx="46.63" cy="9.97" r="1.64"/><path class="cls-12" d="M18.2,27.11l-5.59,1.75C15.17,29.22,17.19,29.59,18.2,27.11Z" transform="translate(-1.42 -1.34)"/></svg>