<svg id="Package_Added" data-name="Package Added" xmlns="http://www.w3.org/2000/svg" viewBox="0 0 97.99 61.12"><defs><style>.cls-1{fill:#d3edf3;}.cls-2{fill:#63bf76;}.cls-3{fill:#168cb3;}.cls-4{fill:#ffd149;}.cls-5{fill:#f89822;}.cls-6{fill:#feeebf;}.cls-7{fill:#fff;}</style></defs><rect class="cls-1" x="25.68" y="4.86" width="72.31" height="48.63"/><path id="plus" class="cls-2" d="M71.15,26A12.41,12.41,0,1,1,83.56,13.58,12.41,12.41,0,0,1,71.15,26ZM77.3,13a1,1,0,0,0-1-.95H72.52V8.27a.94.94,0,0,0-1-.95h-1a1,1,0,0,0-1,.95v3.82H65.84a1,1,0,0,0-1,.95v1a.94.94,0,0,0,1,.95h3.82v3.82a1,1,0,0,0,1,1h1a1,1,0,0,0,1-1V15h3.82a1,1,0,0,0,1-.95Z" transform="translate(-0.54 -1.17)"/><polygon class="cls-3" points="15.82 53.73 0 61.12 84.59 61.12 97.99 53.49 15.82 53.73"/><polygon class="cls-4" points="16.12 58.05 77.24 58.05 77.24 37.83 62.82 37.83 62.82 17.77 30.85 17.77 30.85 37.91 16.12 37.91 16.12 58.05"/><rect class="cls-5" x="53.57" y="17.77" width="9.25" height="20.14"/><rect class="cls-5" x="69.49" y="37.91" width="7.74" height="20.14"/><rect class="cls-5" x="39.15" y="37.91" width="7.74" height="20.14"/><rect class="cls-6" x="17.37" y="39.55" width="6.27" height="4.7"/><rect class="cls-6" x="47.49" y="39.55" width="6.27" height="4.7"/><rect class="cls-6" x="32.89" y="20.12" width="6.27" height="4.7"/><rect class="cls-7" x="69.04" y="6.15" width="2.87" height="12.41" rx="0.37"/><rect class="cls-7" x="69.58" y="7.37" width="2.87" height="12.41" rx="0.35" transform="translate(84.05 -58.6) rotate(90)"/></svg>