<svg xmlns="http://www.w3.org/2000/svg" width="38" height="38" viewBox="0 0 38 38">
  <path id="Path_1431" data-name="Path 1431" d="M1099.625,1764.5h4.75v-4.75h-4.75Zm2.375-19a7.662,7.662,0,0,0-7.125,7.125h4.75a2.375,2.375,0,0,1,4.75,0c0,2.375-4.75,2.375-4.75,4.75h4.75c2.375-.831,4.75-2.375,4.75-5.937S1105.563,1745.5,1102,1745.5Zm0-9.5a19,19,0,1,0,19,19A19.056,19.056,0,0,0,1102,1736Zm0,33.25a14.25,14.25,0,1,1,14.25-14.25A14.292,14.292,0,0,1,1102,1769.25Z" transform="translate(-1083 -1736)" fill="#dfdfdf"/>
</svg>
