<svg id="Question_Received" data-name="Question Received" xmlns="http://www.w3.org/2000/svg" viewBox="0 0 80.25 67.02"><defs><style>.cls-1{fill:#205c9b;}.cls-2{fill:#ffd149;}.cls-3{fill:#feeebf;}.cls-4{fill:#f89822;}.cls-5{fill:#148cb3;}.cls-6{fill:#65c9ee;}.cls-7{fill:#7e7f7f;}.cls-8{fill:#692f90;}</style></defs><ellipse class="cls-1" cx="40.13" cy="65.01" rx="40.13" ry="2.02"/><polygon class="cls-2" points="22.46 40.99 25.72 46.22 36.61 49.87 33.15 44.63 22.46 40.99"/><path class="cls-3" d="M33.57,23.67s1.88-8.18,5.65-7.08,8.52,4.79,7,9.16l5.95-6.46S47.87,3.74,37.22,8.39s-8.31,9.53-8.31,9.53Z" transform="translate(-1.42 -1.27)"/><path class="cls-3" d="M51.36,36.55A21.17,21.17,0,0,0,46,38.43c-3.83,1.71-8,12.71-8,12.71l-3.46-5.23s.06-5.54,0-5.71S46.61,32.92,51.36,36.55Z" transform="translate(-1.42 -1.27)"/><path class="cls-1" d="M61.3,38.41s-9.74-5.63-9.12-6.83,12.75,5.27,11.49,6.33A2.25,2.25,0,0,1,61.3,38.41Z" transform="translate(-1.42 -1.27)"/><ellipse class="cls-2" cx="24.08" cy="57.88" rx="8.15" ry="7.8"/><path id="help" class="cls-4" d="M58.53,12.69A26.57,26.57,0,0,0,45.09,2.9a22.25,22.25,0,0,0-12.7-1.2q-9.21,2-13.84,13.22L30.1,19.14a12.56,12.56,0,0,1,4.28-5.68,7.6,7.6,0,0,1,7.67-.68c2.5,1.07,4.63,2.42,5.57,4.86a9.94,9.94,0,0,1-.25,6.17,9,9,0,0,1-3.71,4.13,10.8,10.8,0,0,1-3.16,1.5,55.18,55.18,0,0,0-11.67,4c-2.28,1.28-3.46,4-5.06,8-.1.29-.22.91.77,1.28l9,3.28A1,1,0,0,0,35,45.49l0-.08a11.15,11.15,0,0,1,1.61-2.88,10.11,10.11,0,0,1,4.95-2.94l4-1a37.13,37.13,0,0,0,8.19-3.26,15.53,15.53,0,0,0,6.13-7.66A15.72,15.72,0,0,0,58.53,12.69ZM27.14,51.48a7.59,7.59,0,1,0-5.61,14.1h0a7.31,7.31,0,0,0,9.72-3.48c.1-.21.19-.43.27-.65a7.39,7.39,0,0,0-3.79-9.73,6,6,0,0,0-.59-.23Z" transform="translate(-1.42 -1.27)"/><circle class="cls-5" cx="62.93" cy="28.54" r="5.68"/><path class="cls-5" d="M59.38,42.37c-1.11-5.46,8.87-8.85,11.06-3.09C71.85,43,73,65.34,70,65.89S60.49,47.83,59.38,42.37Z" transform="translate(-1.42 -1.27)"/><path class="cls-1" d="M64.33,37.27s4.6,28.9,5.86,28.33S71.86,46.08,70,39.25C69,36.26,64.87,36.93,64.33,37.27Z" transform="translate(-1.42 -1.27)"/><path class="cls-1" d="M65,32.68l-5.14-1.8S60.83,35.94,65,32.68Z" transform="translate(-1.42 -1.27)"/><path class="cls-5" d="M61.35,42.05s-12.85-7.42-12-9,16.83,7,15.17,8.36A3,3,0,0,1,61.35,42.05Z" transform="translate(-1.42 -1.27)"/><path class="cls-6" d="M63.16,40.83s-10.9-6.33-11.5-7.27S64.21,40,64.27,40.75,63.16,40.83,63.16,40.83Z" transform="translate(-1.42 -1.27)"/><polygon class="cls-2" points="17.13 13.64 22.04 19.2 32.15 22.4 28.68 17.86 17.13 13.64"/><path id="help-2" data-name="help" class="cls-7" d="M67.53,15.83a2.94,2.94,0,0,0-1.83-.05,2.42,2.42,0,0,0-1.22.67A2.2,2.2,0,0,0,64,18.51l1.31-.33a1.38,1.38,0,0,1,0-.78.82.82,0,0,1,.65-.54,1,1,0,0,1,.81.09,1.17,1.17,0,0,1,.36.58,1,1,0,0,1-.08.6,1.38,1.38,0,0,1-.2.33,6.17,6.17,0,0,0-.81,1.09,1.6,1.6,0,0,0,0,1s0,.1.15.07l1-.26a.11.11,0,0,0,.09-.13h0a1.1,1.1,0,0,1,0-.36,1,1,0,0,1,.27-.57L68,19a4.16,4.16,0,0,0,.54-.8,1.84,1.84,0,0,0-1-2.35Zm-.44,5.46a.83.83,0,0,0,.36,1.62h0a.8.8,0,0,0,.67-.91s0-.06,0-.08a.81.81,0,0,0-.94-.65l-.07,0Z" transform="translate(-1.42 -1.27)"/><path id="help-3" data-name="help" class="cls-6" d="M75.71,21.94A2,2,0,0,0,75,21a1.64,1.64,0,0,0-.86-.32,1.43,1.43,0,0,0-1.2.65l.72.51a.94.94,0,0,1,.4-.31.54.54,0,0,1,.54.1.66.66,0,0,1,.3.44.76.76,0,0,1-.14.43.61.61,0,0,1-.33.21.73.73,0,0,1-.25,0,4.29,4.29,0,0,0-.88.06c-.19,0-.32.21-.5.46,0,0,0,.05,0,.1l.56.4a.09.09,0,0,0,.11,0h0a.52.52,0,0,1,.16-.17.64.64,0,0,1,.4-.11h.29a2.59,2.59,0,0,0,.63-.07,1.12,1.12,0,0,0,.57-.41A1.16,1.16,0,0,0,75.71,21.94ZM72.8,24a.55.55,0,1,0-.66.87h0a.53.53,0,0,0,.74-.06l0,0a.53.53,0,0,0-.08-.75l0,0Z" transform="translate(-1.42 -1.27)"/><path id="help-4" data-name="help" class="cls-8" d="M74.65,12.8a4,4,0,0,0-2.26-1.08,3.37,3.37,0,0,0-1.91.17,3,3,0,0,0-1.68,2.34l1.82.3a1.91,1.91,0,0,1,.48-.95,1.12,1.12,0,0,1,1.11-.31,1.41,1.41,0,0,1,1,.56,1.47,1.47,0,0,1,.13.92,1.31,1.31,0,0,1-.43.71,1.62,1.62,0,0,1-.43.31,7.75,7.75,0,0,0-1.61.91c-.31.25-.4.69-.53,1.32,0,0,0,.14.15.16l1.42.24a.15.15,0,0,0,.19-.11h0a2,2,0,0,1,.16-.47,1.55,1.55,0,0,1,.65-.57l.56-.26a5.85,5.85,0,0,0,1.12-.7,2.52,2.52,0,0,0,.1-3.48Zm-3.58,6.59a1.14,1.14,0,0,0-.44,2.24h0A1.11,1.11,0,0,0,72,20.85a.44.44,0,0,0,0-.1,1.12,1.12,0,0,0-.82-1.34l-.1,0Z" transform="translate(-1.42 -1.27)"/></svg>