<svg xmlns="http://www.w3.org/2000/svg" viewBox="0 0 512 512" width="512" height="512">
	<style>
		tspan { white-space:pre }
		.shp0 { fill: #dfdfdf } 
	</style>
	<path id="Layer" fill-rule="evenodd" class="shp0" d="M504 256C504 393 392.96 504 256 504C119.04 504 8 393 8 256C8 119.08 119.04 8 256 8C392.96 8 504 119.08 504 256ZM456 256C456 145.47 366.49 56 256 56C145.47 56 56 145.5 56 256C56 366.57 145.47 456 256 456C366.57 456 456 366.53 456 256ZM290.82 293.66L290.82 300C290.82 306.63 285.45 312 278.82 312L233.18 312C226.55 312 221.18 306.63 221.18 300L221.18 291.34C221.18 255.6 248.28 241.31 268.76 229.83C286.32 219.98 297.08 213.28 297.08 200.25C297.08 183 275.08 171.55 257.3 171.55C234.11 171.55 223.4 182.53 208.35 201.52C204.3 206.64 196.89 207.59 191.69 203.65L163.86 182.55C158.76 178.68 157.61 171.48 161.22 166.19C184.85 131.49 214.94 112 261.79 112C310.87 112 363.24 150.3 363.24 200.8C363.24 267.85 290.82 268.88 290.82 293.66ZM288.41 334.59C290.14 336.32 291 338.33 291 340.63L291 392.38C291 394.68 290.14 396.69 288.41 398.42C286.69 400.14 284.67 401 282.37 401L230.62 401C228.32 401 226.31 400.14 224.59 398.42C222.86 396.69 222 394.68 222 392.38L222 340.63C222 338.33 222.86 336.32 224.59 334.59C226.31 332.87 228.33 332 230.62 332L282.37 332C284.67 332 286.69 332.86 288.41 334.59Z" />
</svg>