<svg xmlns="http://www.w3.org/2000/svg" width="28.668" height="29.716" viewBox="0 0 28.668 29.716">
  <g id="Settings" transform="translate(-6.39 0)">
    <path id="cog" d="M27.138,17.709a5.669,5.669,0,0,1,2.094-7.734L26.312,4.917a5.593,5.593,0,0,1-2.84.77A5.669,5.669,0,0,1,17.822,0h-5.84a5.593,5.593,0,0,1-.753,2.851A5.668,5.668,0,0,1,3.485,4.9L.565,9.961a5.593,5.593,0,0,1,2.086,2.075A5.668,5.668,0,0,1,.57,19.761L3.49,24.819a5.592,5.592,0,0,1,2.827-.761,5.668,5.668,0,0,1,5.65,5.657h5.84a5.6,5.6,0,0,1,.753-2.821,5.668,5.668,0,0,1,7.731-2.061l2.921-5.058a5.6,5.6,0,0,1-2.073-2.067ZM14.9,20.874a6.017,6.017,0,1,1,6.017-6.017A6.017,6.017,0,0,1,14.9,20.874Z" transform="translate(5.825 0.001)" fill="#452092"/>
  </g>
</svg>
