<svg xmlns="http://www.w3.org/2000/svg" viewBox="0 0 512 512" width="512" height="512">
	<style>
		tspan { white-space:pre }
		.shp0 { fill: #452092 } 
	</style>
	<g id="Layer">
		<g id="Layer">
			<g id="Layer">
				<path id="Layer" class="shp0" d="M508.27 194.57L358.94 66.57C355.79 63.86 351.35 63.25 347.54 64.97C343.76 66.71 341.33 70.5 341.33 74.66L341.33 149.48C222.15 152.79 164.65 211.79 137.31 261.51C113.54 304.73 108.21 347.52 107.01 365.08C106.78 367.77 106.67 370.51 106.67 373.3L106.67 373.33C106.67 373.33 106.67 373.34 106.67 373.35L106.67 373.36C106.67 373.37 106.67 373.37 106.67 373.37L106.67 373.4L106.67 373.41C106.67 373.41 106.67 373.42 106.67 373.43L106.67 373.44C106.67 373.45 106.67 373.46 106.67 373.46C106.67 373.47 106.67 373.47 106.67 373.47L106.67 373.5C106.67 373.51 106.67 373.53 106.67 373.54C106.67 373.54 106.67 373.55 106.67 373.57L106.67 373.58L106.67 373.6L106.67 373.61C106.67 373.62 106.67 373.63 106.67 373.64L106.68 373.67C106.68 373.67 106.68 373.67 106.68 373.68C106.68 373.7 106.68 373.71 106.68 373.71C106.68 373.72 106.68 373.73 106.68 373.74L106.68 373.77L106.68 373.8L106.68 373.81L106.68 373.84C106.68 373.85 106.68 373.87 106.68 373.88C106.68 373.88 106.68 373.9 106.69 373.91C106.69 373.91 106.69 373.92 106.69 373.94L106.69 373.95C106.69 373.96 106.69 373.97 106.69 373.98L106.69 374.01C106.69 374.02 106.69 374.03 106.69 374.04C106.68 374.07 106.71 374.08 106.7 374.08L106.7 374.11C106.7 374.12 106.7 374.13 106.7 374.14L106.7 374.18C106.7 374.2 106.71 374.22 106.71 374.22L106.71 374.25C106.71 374.26 106.71 374.27 106.71 374.28L106.71 374.29L106.71 374.31L106.71 374.32L106.72 374.34L106.72 374.35C106.72 374.36 106.72 374.37 106.72 374.37C106.72 374.38 106.72 374.38 106.72 374.38L106.72 374.41L106.72 374.42C106.73 374.43 106.73 374.43 106.73 374.44C106.73 374.44 106.73 374.45 106.73 374.47L106.73 374.48C106.73 374.49 106.73 374.49 106.73 374.49L106.73 374.51C106.74 374.54 106.74 374.54 106.74 374.54C106.74 374.55 106.74 374.56 106.74 374.57L106.74 374.58L106.74 374.6L106.74 374.61C106.75 374.62 106.75 374.63 106.75 374.63C106.75 374.65 106.75 374.66 106.75 374.66C107.41 379.92 111.9 383.98 117.33 383.98C123.22 383.98 127.99 379.22 128 373.34L128 373.33C128 372.79 128.01 371.46 128.1 369.44C132.76 280.75 296.62 260.62 341.33 256.78L341.33 330.65C341.33 334.82 343.76 338.6 347.54 340.34C351.34 342.07 355.77 341.46 358.93 338.75L508.27 210.75C510.63 208.72 512 205.77 512 202.65C512 199.55 510.63 196.59 508.27 194.57Z" />
				<path id="Layer" class="shp0" d="M441.79 304.03C437.99 302.28 433.56 302.89 430.39 305.62L409.05 323.91C406.7 325.93 405.33 328.89 405.33 332.01L405.33 405.33L42.67 405.33L42.67 192L161.88 192C164.46 192 166.95 191.06 168.88 189.36C177.36 181.96 186.53 175.11 196.13 168.99C200.13 166.44 201.96 161.56 200.63 157.01C199.31 152.45 195.13 149.33 190.39 149.33L42.67 149.33C19.14 149.33 0 168.46 0 192L0 405.33C0 428.86 19.14 448 42.67 448L405.33 448C428.86 448 448 428.86 448 405.33L448 313.71C448 309.55 445.57 305.77 441.79 304.03Z" />
			</g>
		</g>
	</g>
	<g id="Layer">
	</g>
	<g id="Layer">
	</g>
	<g id="Layer">
	</g>
	<g id="Layer">
	</g>
	<g id="Layer">
	</g>
	<g id="Layer">
	</g>
	<g id="Layer">
	</g>
	<g id="Layer">
	</g>
	<g id="Layer">
	</g>
	<g id="Layer">
	</g>
	<g id="Layer">
	</g>
	<g id="Layer">
	</g>
	<g id="Layer">
	</g>
	<g id="Layer">
	</g>
	<g id="Layer">
	</g>
</svg>