<svg xmlns="http://www.w3.org/2000/svg" viewBox="0 0 576 512" width="576" height="512">
	<style>
		tspan { white-space:pre }
		.shp0 { fill: #452092 } 
	</style>
	<path id="Layer" fill-rule="evenodd" class="shp0" d="M960.48 211.43C945.3 225.76 920 215.14 920 193.98L920 122.02C775.42 122.99 714.43 157.13 755.23 293.37C759.71 308.34 742.38 319.94 730.22 310.7C691.25 281.1 656 224.48 656 167.33C656 23.4 773.6 -5.17 920 -5.98L920 -77.99C920 -99.17 945.32 -109.76 960.48 -95.44L1104.48 40.55C1114.5 50.01 1114.51 65.97 1104.48 75.44L960.48 211.43ZM384 379.13C384 371.78 390.53 366.22 397.8 367.27C400.66 367.68 403.55 367.92 406.44 367.98C409.33 368.05 412.22 367.94 415.1 367.65C417.98 367.37 420.84 366.91 423.66 366.28C426.48 365.65 429.26 364.86 431.99 363.89C439.8 361.13 448 366.91 448 375.19L448 464C448 490.51 426.51 512 400 512L48 512C21.49 512 0 490.51 0 464L0 112C0 85.49 21.49 64 48 64L169.03 64C181.58 64 185.71 80.83 174.58 86.63C155.8 96.42 138.52 108.74 123.56 124.31C123.01 124.89 122.39 125.41 121.73 125.87C121.07 126.33 120.36 126.72 119.62 127.04C118.88 127.35 118.1 127.59 117.32 127.76C116.53 127.92 115.72 128 114.92 128L64 128L64 448L384 448L384 379.13Z" />
	<path id="Layer" class="shp0" d="M553.27 149.57L403.94 21.57C400.79 18.86 396.36 18.25 392.54 19.97C388.76 21.71 386.33 25.5 386.33 29.66L386.33 104.48C267.15 107.79 209.65 166.79 182.31 216.51C158.54 259.73 153.21 302.52 152.01 320.08C151.78 322.77 151.67 325.51 151.67 328.3L151.67 328.33C151.67 328.33 151.67 328.34 151.67 328.35L151.67 328.36C151.67 328.37 151.67 328.37 151.67 328.37L151.67 328.4L151.67 328.41C151.67 328.41 151.67 328.42 151.67 328.43L151.67 328.44C151.67 328.45 151.67 328.46 151.67 328.46C151.67 328.47 151.67 328.47 151.67 328.47L151.67 328.5C151.67 328.51 151.67 328.53 151.67 328.54C151.67 328.54 151.67 328.55 151.67 328.57L151.67 328.58L151.67 328.6L151.67 328.61C151.67 328.62 151.67 328.63 151.67 328.64L151.68 328.67C151.68 328.67 151.68 328.67 151.68 328.68C151.68 328.7 151.68 328.71 151.68 328.71C151.68 328.72 151.68 328.73 151.68 328.74L151.68 328.77L151.68 328.8L151.68 328.81L151.68 328.84C151.68 328.85 151.68 328.87 151.68 328.88C151.68 328.88 151.68 328.9 151.69 328.91C151.69 328.91 151.69 328.92 151.69 328.94L151.69 328.95C151.69 328.96 151.69 328.97 151.69 328.98L151.69 329.01C151.69 329.02 151.69 329.03 151.69 329.04C151.68 329.07 151.71 329.08 151.7 329.08L151.7 329.11C151.7 329.12 151.7 329.13 151.7 329.14L151.7 329.18C151.7 329.2 151.71 329.22 151.71 329.22L151.71 329.25C151.71 329.26 151.71 329.27 151.71 329.28L151.71 329.29L151.71 329.31L151.71 329.32L151.72 329.34L151.72 329.35C151.72 329.36 151.72 329.37 151.72 329.37C151.72 329.38 151.72 329.38 151.72 329.38L151.72 329.41L151.72 329.42C151.73 329.43 151.73 329.43 151.73 329.44C151.73 329.44 151.73 329.45 151.73 329.47L151.73 329.48C151.73 329.49 151.73 329.49 151.73 329.49L151.73 329.51C151.74 329.54 151.74 329.54 151.74 329.54C151.74 329.55 151.74 329.56 151.74 329.57L151.74 329.58L151.74 329.6L151.74 329.61C151.75 329.62 151.75 329.63 151.75 329.63C151.75 329.65 151.75 329.66 151.75 329.66C152.41 334.92 156.9 338.98 162.33 338.98C168.22 338.98 172.99 334.22 173 328.34L173 328.33C173 327.79 173.01 326.46 173.1 324.44C177.76 235.75 341.62 215.62 386.33 211.78L386.33 285.65C386.33 289.82 388.76 293.6 392.54 295.34C396.34 297.07 400.77 296.46 403.93 293.75L553.27 165.75C555.63 163.72 557 160.77 557 157.65C557 154.55 555.63 151.59 553.27 149.57Z" />
</svg>