<svg id="Tracking" xmlns="http://www.w3.org/2000/svg" viewBox="0 0 86.32 68.07"><defs><style>.cls-1{fill:#eae9ee;}.cls-2{fill:#f89822;}.cls-3{fill:#4072a0;}.cls-4{fill:#8a8d93;}.cls-5{fill:#dadae3;}.cls-6{fill:#205c9b;}.cls-7{fill:#57a1d8;}.cls-8{fill:#898996;}.cls-9{fill:#1c5ba2;}.cls-10{fill:#1f5d9a;}.cls-11{fill:#858999;}.cls-12{fill:#1a5589;}.cls-13{fill:#ffd149;}.cls-14{fill:#feeebf;}.cls-15{fill:#d5c0a3;}.cls-16{fill:#bba892;}.cls-17{fill:#d27b28;}.cls-18{fill:#65c9ee;}.cls-19{fill:#c0dcf3;}.cls-20{fill:#d8eaf8;}.cls-21{fill:#a2b3bf;}.cls-22{fill:#cad3d9;}.cls-23{fill:#148cb3;}.cls-24{fill:#2e373a;}.cls-25{fill:#afb4b7;}.cls-26{fill:#e9eff3;}.cls-27{fill:#b5cddc;}</style></defs><path class="cls-1" d="M24,59.06C37,56.69,62,48.76,62.08,40.19S19.2,26,9.37,22.47C.29,19.19,38.79,14,51.87,14h9.37S24.37,17.15,24.4,21.77c.05,6.16,100.18,13.43,47.67,40" transform="translate(-0.98 -1.14)"/><path class="cls-1" d="M1,63.93c0,2.92,14.61,5.28,32.64,5.28s33.25-5,38.45-7.46c2.63-1.25-20.43-3.09-38.45-3.09S1,61,1,63.93Z" transform="translate(-0.98 -1.14)"/><ellipse class="cls-2" cx="33.07" cy="64.06" rx="7.11" ry="1"/><ellipse class="cls-2" cx="15.33" cy="64.06" rx="6.35" ry="1"/><polygon class="cls-3" points="46.16 12.86 79.81 12.86 79.81 4.8 70.36 0 55.76 0 46.16 4.8 46.16 12.86"/><polygon class="cls-4" points="46.16 12.86 65.27 12.86 65.27 4.94 55.72 0 46.16 4.8 46.16 12.86"/><polygon class="cls-5" points="46.16 9.88 79.81 9.88 79.81 6.1 65.27 6.1 55.68 1.16 46.16 5.81 46.16 9.88"/><rect class="cls-6" x="51.11" y="7.7" width="9.16" height="5.16"/><rect class="cls-7" x="50.89" y="7.7" width="4.8" height="5.16"/><rect class="cls-8" x="50.89" y="4.58" width="3.71" height="1.31"/><rect class="cls-9" x="56.85" y="4.58" width="3.71" height="1.31"/><rect class="cls-10" x="65.27" y="8.86" width="1.24" height="4"/><rect class="cls-10" x="67.53" y="8.86" width="1.38" height="4"/><rect class="cls-10" x="69.71" y="8.86" width="1.38" height="4"/><rect class="cls-10" x="71.96" y="8.86" width="1.38" height="4"/><rect class="cls-10" x="74.14" y="8.86" width="1.38" height="4"/><rect class="cls-10" x="76.39" y="8.86" width="1.38" height="4"/><rect class="cls-10" x="78.57" y="8.86" width="1.24" height="4"/><rect class="cls-11" x="65.27" y="5.89" width="1.24" height="4"/><rect class="cls-11" x="67.53" y="5.89" width="1.38" height="4"/><rect class="cls-11" x="69.71" y="5.89" width="1.38" height="4"/><rect class="cls-11" x="71.96" y="5.89" width="1.38" height="4"/><rect class="cls-11" x="74.14" y="5.89" width="1.38" height="4"/><rect class="cls-11" x="76.39" y="5.89" width="1.38" height="4"/><rect class="cls-11" x="78.57" y="5.89" width="1.24" height="4"/><path class="cls-12" d="M66.25,6.1V7.24s14.54.21,14.54,0V6.1Z" transform="translate(-0.98 -1.14)"/><polygon class="cls-13" points="37.6 12.92 46.95 12.92 46.95 9.83 44.74 9.83 44.74 6.76 39.85 6.76 39.85 9.84 37.6 9.84 37.6 12.92"/><rect class="cls-2" x="43.33" y="6.76" width="1.42" height="3.08"/><rect class="cls-2" x="45.77" y="9.84" width="1.19" height="3.08"/><rect class="cls-2" x="41.12" y="9.84" width="1.19" height="3.08"/><rect class="cls-14" x="37.79" y="10.09" width="0.96" height="0.72"/><rect class="cls-14" x="42.4" y="10.09" width="0.96" height="0.72"/><rect class="cls-14" x="40.16" y="7.12" width="0.96" height="0.72"/><rect class="cls-15" x="36.91" y="12.8" width="1.22" height="1.01"/><rect class="cls-15" x="39.43" y="12.8" width="1.22" height="1.01"/><rect class="cls-15" x="41.92" y="12.8" width="1.22" height="1.01"/><rect class="cls-15" x="44.55" y="12.8" width="1.22" height="1.01"/><rect class="cls-15" x="46.94" y="12.8" width="1.22" height="1.01"/><rect class="cls-16" x="37.87" y="12.99" width="0.25" height="0.81"/><rect class="cls-16" x="40.39" y="12.99" width="0.25" height="0.81"/><rect class="cls-16" x="42.88" y="12.99" width="0.25" height="0.81"/><rect class="cls-16" x="45.51" y="12.99" width="0.25" height="0.81"/><rect class="cls-16" x="47.9" y="12.99" width="0.25" height="0.81"/><rect class="cls-17" x="36.91" y="12.68" width="11.24" height="0.45"/><ellipse class="cls-2" cx="15.97" cy="20.78" rx="4.24" ry="0.54"/><ellipse class="cls-13" cx="19.36" cy="21.52" rx="3.41" ry="0.43"/><path id="location-pin" class="cls-6" d="M17,4.09a5.57,5.57,0,0,0-5.58,5.55h0C11.37,15,17,21.93,17,21.93S22.53,15,22.53,9.65A5.57,5.57,0,0,0,17,4.09Zm0,8.64a3,3,0,1,1,3-3h0a3,3,0,0,1-3,3Z" transform="translate(-0.98 -1.14)"/><path id="location-pin-2" data-name="location-pin" class="cls-18" d="M20.34,10.89a3.77,3.77,0,0,0-3.76,3.75h0c0,3.59,3.76,8.28,3.76,8.28s3.77-4.69,3.77-8.28a3.76,3.76,0,0,0-3.76-3.76Zm0,5.83a2,2,0,1,1,2-2h0a2,2,0,0,1-2,2h0Z" transform="translate(-0.98 -1.14)"/><path class="cls-19" d="M80.47,25.27s1.14.11,1.49,1.94S83,33,83,33l-1.61,4.47L71.36,34l4.16-10.53Z" transform="translate(-0.98 -1.14)"/><polygon class="cls-20" points="75.1 22.55 78.71 23.85 76.56 29.82 72.61 28.4 75.1 22.55"/><rect class="cls-21" x="77.25" y="31.17" width="4.5" height="5.78" transform="translate(19.56 96.19) rotate(-70.21)"/><rect class="cls-22" x="71.81" y="29.21" width="4.5" height="5.78" transform="translate(17.8 89.78) rotate(-70.21)"/><rect class="cls-23" x="50.28" y="16.42" width="25.46" height="13.95" transform="matrix(0.94, 0.34, -0.34, 0.94, 10.66, -21.09)"/><rect class="cls-19" x="50.65" y="14.35" width="13.21" height="13.95" transform="translate(9.62 -19.26) rotate(19.79)"/><rect class="cls-13" x="46.39" y="31.06" width="36.07" height="2.51" transform="translate(13.76 -21.05) rotate(19.79)"/><polygon class="cls-2" points="58.56 28.08 58.93 30.88 46.05 26.25 46.9 23.88 58.56 28.08"/><circle class="cls-24" cx="54.23" cy="28.42" r="3.84"/><circle class="cls-24" cx="74.45" cy="35.7" r="3.84"/><path d="M58.82,30.86l-7.22-2.6s-1.17,3.66,2.31,4.91S58.82,30.86,58.82,30.86Z" transform="translate(-0.98 -1.14)"/><path d="M79,38.14l-7.22-2.6s-1.17,3.66,2.31,4.91S79,38.14,79,38.14Z" transform="translate(-0.98 -1.14)"/><circle class="cls-20" cx="54.23" cy="28.42" r="1.74"/><circle class="cls-20" cx="74.45" cy="35.7" r="1.74"/><path class="cls-25" d="M53.56,29l3.29,1.18a1.74,1.74,0,0,0-1.05-2.23A1.72,1.72,0,0,0,53.56,29Z" transform="translate(-0.98 -1.14)"/><path class="cls-25" d="M73.79,36.25l3.28,1.18a1.74,1.74,0,0,0-1-2.23A1.71,1.71,0,0,0,73.79,36.25Z" transform="translate(-0.98 -1.14)"/><rect class="cls-26" x="57.13" y="20.34" width="13.77" height="6.1" rx="2.11" transform="translate(10.72 -21.43) rotate(19.79)"/><circle class="cls-27" cx="37.16" cy="26.42" r="5.96"/><path class="cls-27" d="M30.06,39.07c.75-5.79,11.8-5.79,12,.66.15,4.19-6.28,26.75-9.42,26.28S29.32,44.87,30.06,39.07Z" transform="translate(-0.98 -1.14)"/><path class="cls-27" d="M29.69,39.29l-.16,2.31s-3.34,2.83-3.6,2.18S29.69,39.29,29.69,39.29Z" transform="translate(-0.98 -1.14)"/><path class="cls-23" d="M36.7,35.68S31.53,65.94,33,65.8,41.21,47,41.68,39.56C41.64,36.24,37.35,35.52,36.7,35.68Z" transform="translate(-0.98 -1.14)"/><path class="cls-23" d="M40.11,30.64l-7.22-1.86S35.1,35.48,40.11,30.64Z" transform="translate(-0.98 -1.14)"/><path class="cls-23" d="M20.9,39.35l.32,2.18S24.6,44,24.8,43.34,20.9,39.35,20.9,39.35Z" transform="translate(-0.98 -1.14)"/><rect class="cls-13" x="20.64" y="40.46" width="11.11" height="7.88"/><rect class="cls-2" x="28.24" y="40.46" width="3.53" height="7.88"/><rect class="cls-14" x="21.91" y="41.37" width="3.57" height="1.97"/><circle class="cls-23" cx="12.03" cy="27.86" r="5.68"/><path class="cls-23" d="M20.7,40C20,34.44,9.46,34.44,9.24,40.6c-.14,4,6,25.49,9,25.05S21.41,45.5,20.7,40Z" transform="translate(-0.98 -1.14)"/><path class="cls-6" d="M14.38,36.73s4.93,28.84,3.56,28.71-7.86-17.95-8.31-25C9.67,37.27,13.76,36.58,14.38,36.73Z" transform="translate(-0.98 -1.14)"/><path class="cls-6" d="M11,31.67l6.88-1.77S15.74,36.28,11,31.67Z" transform="translate(-0.98 -1.14)"/><path class="cls-23" d="M10,43.44s12.37,8.2,13.42,6.76-13.72-12-14.23-9.86A3,3,0,0,0,10,43.44Z" transform="translate(-0.98 -1.14)"/><path class="cls-18" d="M10.26,41.28s10.52,6.95,11.63,7.06S10.51,40,9.84,40.25,10.26,41.28,10.26,41.28Z" transform="translate(-0.98 -1.14)"/><path class="cls-27" d="M41.32,42.72s-13,8.6-14.08,7.09,14.4-12.56,14.93-10.35A3.12,3.12,0,0,1,41.32,42.72Z" transform="translate(-0.98 -1.14)"/><path class="cls-20" d="M41,40.44s-11,7.3-12.2,7.41,11.94-8.76,12.65-8.49S41,40.44,41,40.44Z" transform="translate(-0.98 -1.14)"/><path class="cls-13" d="M44,28.5s-17.8-7.36-16.83-8,7.19,2.46,7.19,2.46,1.12-3.93,2.77-4S49.9,23.48,44,28.5Z" transform="translate(-0.98 -1.14)"/><path class="cls-2" d="M39.71,24.69s3-3.52,2-4.06-3.43-2-4.55-1.73c-1.6.44-1.76,1.62-2.77,4C34.38,22.93,38.65,26.07,39.71,24.69Z" transform="translate(-0.98 -1.14)"/><rect class="cls-14" x="35.89" y="20.5" width="4.51" height="2.21" rx="1.1" transform="translate(14.93 -17.32) rotate(30)"/></svg>