<svg xmlns="http://www.w3.org/2000/svg" viewBox="0 0 470 470" width="470" height="470">
	<style>
		tspan { white-space:pre }
		.shp0 { fill: #ffffff } 
	</style>
	<g id="Layer">
		<g id="Layer">
			<path id="Layer" fill-rule="evenodd" class="shp0" d="M469.33 234.67L469.33 341.33L426.67 341.33C426.67 376.64 397.97 405.33 362.67 405.33C327.36 405.33 298.67 376.64 298.67 341.33L170.67 341.33C170.67 376.64 141.97 405.33 106.67 405.33C71.36 405.33 42.67 376.64 42.67 341.33L0 341.33L0 106.67C0 83.09 19.09 64 42.67 64L341.33 64L341.33 149.33L405.33 149.33L469.33 234.67ZM138.67 341.33C138.67 323.63 124.37 309.33 106.67 309.33C88.96 309.33 74.67 323.63 74.67 341.33C74.67 359.04 88.96 373.33 106.67 373.33C124.37 373.33 138.67 359.04 138.67 341.33ZM394.67 341.33C394.67 323.63 380.37 309.33 362.67 309.33C344.96 309.33 330.67 323.63 330.67 341.33C330.67 359.04 344.96 373.33 362.67 373.33C380.37 373.33 394.67 359.04 394.67 341.33ZM436.59 234.67L394.67 181.33L341.33 181.33L341.33 234.67L436.59 234.67Z" />
		</g>
	</g>
	<g id="Layer">
	</g>
	<g id="Layer">
	</g>
	<g id="Layer">
	</g>
	<g id="Layer">
	</g>
	<g id="Layer">
	</g>
	<g id="Layer">
	</g>
	<g id="Layer">
	</g>
	<g id="Layer">
	</g>
	<g id="Layer">
	</g>
	<g id="Layer">
	</g>
	<g id="Layer">
	</g>
	<g id="Layer">
	</g>
	<g id="Layer">
	</g>
	<g id="Layer">
	</g>
	<g id="Layer">
	</g>
</svg>