<svg xmlns="http://www.w3.org/2000/svg" width="179.998" height="178.775" viewBox="0 0 179.998 178.775">
  <g id="Group_486" data-name="Group 486" transform="translate(31.72 -39.64) rotate(21)">
    <path id="link" d="M71.305,141.633l-3.853,6.861a12.466,12.466,0,0,1-16.83,4.811,12.132,12.132,0,0,1-4.779-16.48l.044-.079,14.122-25.18c2.922-5.219,8.9-13.381,16.086-9.425A6.819,6.819,0,1,0,82.675,90.2h0c-12.207-6.729-25.788-.955-34.564,14.709L33.992,130.09a25.737,25.737,0,0,0,9.842,35.045l.209.115a26.116,26.116,0,0,0,35.3-10.092l3.851-6.858a6.82,6.82,0,0,0-11.9-6.658ZM158.751,35.378c-12.615-8.086-27.277-5.531-34.846,6.083l-5.345,8.18a6.814,6.814,0,1,0,11.39,7.484l.024-.038,5.354-8.18c3.915-6.021,10.888-5.369,16.063-2.059a12.117,12.117,0,0,1,3.648,16.747l-.044.068L138.136,89.488c-7.7,11.789-13.264,8.233-15.637,6.705a6.816,6.816,0,0,0-7.363,11.472,21.539,21.539,0,0,0,16.412,3.445,30.05,30.05,0,0,0,18.019-14.18L166.411,71.14A25.751,25.751,0,0,0,158.93,35.5l-.182-.12Z" transform="translate(0 0)" fill="#452092"/>
    <path id="Path_1451" data-name="Path 1451" d="M0,0,21.172,99.726" transform="translate(88.621 51.123)" fill="#452092" stroke="#452092" stroke-linecap="round" stroke-width="8"/>
  </g>
</svg>
